<svg width="16" height="16" viewBox="0 0 16 16" fill="none" xmlns="http://www.w3.org/2000/svg">
<g id="icon &#209;&#129;&#208;&#191;&#208;&#184;&#209;&#129;&#208;&#190;&#208;&#186; &#209;&#129;&#209;&#130;&#209;&#128;&#208;&#181;&#208;&#187;&#208;&#186;&#208;&#176;">
<path id="Vector" d="M10.6835 2.89576C10.6824 2.96838 10.6549 3.034 10.5943 3.08591L5.25384 7.79953L10.4529 12.9487C10.5576 13.0493 10.5551 13.2143 10.454 13.3184C10.3529 13.4226 10.187 13.4201 10.0823 13.3195L4.68051 7.9692C4.63476 7.92229 4.6092 7.85588 4.61029 7.78326C4.61029 7.78326 4.61029 7.78326 4.61039 7.77666C4.61148 7.70404 4.64565 7.63853 4.69943 7.59311L10.255 2.69784C10.3627 2.60042 10.5285 2.60951 10.6263 2.72323C10.6655 2.77003 10.6844 2.83635 10.6835 2.89576Z" fill="#5E5E5E" stroke="#5E5E5E" stroke-miterlimit="10"/>
</g>
</svg>
