<svg width="24" height="24" viewBox="0 0 24 24" fill="none" xmlns="http://www.w3.org/2000/svg">
<path fill-rule="evenodd" clip-rule="evenodd" d="M19.7672 6.50682C19.9955 6.73533 20.1237 7.0451 20.1237 7.36807C20.1237 7.69104 19.9955 8.0008 19.7672 8.22932L9.85962 18.1369C9.74524 18.2512 9.60927 18.3416 9.45963 18.4028C9.30999 18.464 9.14966 18.4948 8.98799 18.4934C8.82632 18.4921 8.66654 18.4586 8.51795 18.3949C8.36936 18.3311 8.23493 18.2385 8.12249 18.1223L4.21762 14.0858C4.10531 13.971 4.01681 13.8351 3.95719 13.686C3.89757 13.5369 3.86802 13.3774 3.87023 13.2168C3.87244 13.0562 3.90638 12.8977 3.97008 12.7502C4.03378 12.6028 4.12599 12.4694 4.24142 12.3577C4.35684 12.246 4.4932 12.1583 4.64266 12.0995C4.79212 12.0407 4.95172 12.012 5.1123 12.0151C5.27288 12.0182 5.43126 12.053 5.57835 12.1175C5.72543 12.182 5.85832 12.2749 5.96937 12.3909L9.01299 15.5369L18.0447 6.50682C18.2733 6.27859 18.583 6.15039 18.906 6.15039C19.229 6.15039 19.5387 6.27859 19.7672 6.50682Z" fill="black"/>
</svg>
