<svg width="15" height="15" viewBox="0 0 15 15" fill="none" xmlns="http://www.w3.org/2000/svg">
<g id="icon &#208;&#190;&#209;&#136;&#208;&#184;&#208;&#177;&#208;&#186;&#208;&#176;">
<path id="Vector (Stroke)" fill-rule="evenodd" clip-rule="evenodd" d="M7.33333 0.166997C8.29652 0.165862 9.25045 0.355031 10.1403 0.723642C11.0302 1.09225 11.8385 1.63302 12.5187 2.3149C13.2006 2.99518 13.7414 3.80346 14.11 4.69334C14.4786 5.58321 14.6678 6.53713 14.6667 7.50032C14.6678 8.46351 14.4786 9.41744 14.11 10.3073C13.7414 11.1972 13.2006 12.0055 12.5187 12.6857C11.8385 13.3676 11.0302 13.9084 10.1403 14.277C9.25045 14.6456 8.29652 14.8348 7.33332 14.8337C6.37014 14.8348 5.41622 14.6456 4.52635 14.277C3.63648 13.9084 2.82821 13.3676 2.14794 12.6857C1.46604 12.0055 0.925259 11.1972 0.55665 10.3073C0.188038 9.41744 -0.00113106 8.46351 5.08747e-06 7.50031C-0.00110896 6.53713 0.188069 5.58321 0.556676 4.69334C0.925283 3.80347 1.46606 2.99519 2.14793 2.31492C2.8282 1.63305 3.63648 1.09228 4.52635 0.723668C5.41622 0.35506 6.37014 0.165882 7.33333 0.166997ZM9.63007 1.95548C8.90224 1.65399 8.122 1.49931 7.3342 1.50033H7.33248C6.54468 1.49933 5.76444 1.65401 5.03661 1.9555C4.30877 2.25699 3.64769 2.69934 3.09135 3.25712L3.09013 3.25835C2.53234 3.81468 2.09 4.47577 1.78851 5.2036C1.48702 5.93143 1.33233 6.71167 1.33334 7.49948V7.50119C1.33232 8.28899 1.487 9.06923 1.78848 9.79706C2.08997 10.5249 2.53232 11.186 3.09012 11.7423L3.09136 11.7435C3.64769 12.3013 4.30877 12.7437 5.03661 13.0451C5.76444 13.3466 6.54468 13.5013 7.33248 13.5003H7.3342C8.122 13.5013 8.90224 13.3467 9.63007 13.0452C10.3579 12.7437 11.019 12.3013 11.5753 11.7435L11.5765 11.7423C12.1343 11.186 12.5767 10.5249 12.8782 9.79706C13.1797 9.06923 13.3343 8.28899 13.3333 7.50119V7.49948C13.3343 6.71167 13.1796 5.93143 12.8782 5.2036C12.5767 4.47577 12.1343 3.81468 11.5765 3.25835L11.5753 3.25711C11.019 2.69932 10.3579 2.25696 9.63007 1.95548Z" fill="#E96D74"/>
<path id="Vector" fill-rule="evenodd" clip-rule="evenodd" d="M7.33333 11.8337C7.55435 11.8337 7.76631 11.7459 7.92259 11.5896C8.07887 11.4333 8.16667 11.2213 8.16667 11.0003C8.16667 10.7793 8.07887 10.5673 7.92259 10.4111C7.76631 10.2548 7.55435 10.167 7.33333 10.167C7.11232 10.167 6.90036 10.2548 6.74408 10.4111C6.5878 10.5673 6.5 10.7793 6.5 11.0003C6.5 11.2213 6.5878 11.4333 6.74408 11.5896C6.90036 11.7459 7.11232 11.8337 7.33333 11.8337Z" fill="#E96D74"/>
<path id="Vector (Stroke)_2" fill-rule="evenodd" clip-rule="evenodd" d="M7.33341 2.83301C7.7016 2.83301 8.00008 3.13148 8.00008 3.49967V8.833C8.00008 9.20119 7.7016 9.49967 7.33341 9.49967C6.96522 9.49967 6.66675 9.20119 6.66675 8.833V3.49967C6.66675 3.13148 6.96522 2.83301 7.33341 2.83301Z" fill="#E96D74"/>
</g>
</svg>
