<svg width="12" height="12" viewBox="0 0 12 12" fill="none" xmlns="http://www.w3.org/2000/svg">
<g id="Group 103">
<path id="Vector" fill-rule="evenodd" clip-rule="evenodd" d="M0.440254 11.5581C0.734255 11.8531 1.08751 12.0005 1.50001 12.0005H3.7895V10.4956H1.50001V8.23828H1.27335e-06V10.4956C-0.000498729 10.909 0.146252 11.2631 0.440254 11.5581Z" fill="#77DFC4"/>
<path id="Vector_2" fill-rule="evenodd" clip-rule="evenodd" d="M11.5597 0.443854C11.2657 0.148893 10.9125 0.00141182 10.5 0.00141178L8.2105 0.00141158L8.2105 1.50632L10.5 1.50632L10.5 3.76367L12 3.76367L12 1.50632C12.0005 1.09297 11.8537 0.738815 11.5597 0.443854Z" fill="#77DFC4"/>
<path id="Vector_3" fill-rule="evenodd" clip-rule="evenodd" d="M0.440982 0.44169C0.14698 0.736652 -2.07943e-05 1.09106 -2.08139e-05 1.50491L-2.09231e-05 3.80186L1.49999 3.80186L1.49999 1.50491L3.75 1.50491L3.75 1.27751e-06L1.49999 1.18706e-06C1.08799 -0.000500464 0.734983 0.146729 0.440982 0.44169Z" fill="#77DFC4"/>
<path id="Vector_4" fill-rule="evenodd" clip-rule="evenodd" d="M11.559 11.5583C11.853 11.2633 12 10.9089 12 10.4951L12 8.19814L10.5 8.19814L10.5 10.4951L8.25 10.4951L8.25 12L10.5 12C10.912 12.0005 11.265 11.8533 11.559 11.5583Z" fill="#77DFC4"/>
</g>
</svg>
