<svg width="27" height="30" viewBox="0 0 27 30" fill="none" xmlns="http://www.w3.org/2000/svg">
<path d="M13.186 8.1C12.0247 8.1 10.9673 8.36 10.014 8.88L9.52 7.476C9.884 7.268 10.404 7.06867 11.08 6.878C11.7733 6.68733 12.536 6.592 13.368 6.592C14.2867 6.592 15.0493 6.71333 15.656 6.956C16.28 7.18133 16.774 7.48467 17.138 7.866C17.502 8.23 17.762 8.646 17.918 9.114C18.074 9.582 18.152 10.0413 18.152 10.492C18.152 11.116 18.0393 11.6707 17.814 12.156C17.5887 12.6413 17.3027 13.092 16.956 13.508C16.6093 13.924 16.2367 14.3227 15.838 14.704C15.4567 15.0853 15.0927 15.484 14.746 15.9C14.3993 16.2987 14.1133 16.732 13.888 17.2C13.6627 17.668 13.55 18.188 13.55 18.76C13.55 18.9507 13.55 19.098 13.55 19.202C13.55 19.2887 13.5587 19.3753 13.576 19.462H12.224C12.1893 19.2887 12.1633 19.1067 12.146 18.916C12.1287 18.708 12.12 18.5 12.12 18.292C12.12 17.7027 12.224 17.1827 12.432 16.732C12.64 16.264 12.9 15.8307 13.212 15.432C13.524 15.0333 13.862 14.6607 14.226 14.314C14.59 13.95 14.928 13.586 15.24 13.222C15.552 12.8407 15.812 12.442 16.02 12.026C16.228 11.5927 16.332 11.1073 16.332 10.57C16.332 10.0847 16.2453 9.686 16.072 9.374C15.8987 9.04467 15.6647 8.78467 15.37 8.594C15.0927 8.40333 14.7633 8.27333 14.382 8.204C14.0007 8.13467 13.602 8.1 13.186 8.1ZM14.46 23.882C14.46 24.2807 14.33 24.6187 14.07 24.896C13.8273 25.1733 13.4807 25.312 13.03 25.312C12.5793 25.312 12.224 25.1733 11.964 24.896C11.7213 24.6187 11.6 24.2807 11.6 23.882C11.6 23.4833 11.7213 23.1453 11.964 22.868C12.224 22.5907 12.5793 22.452 13.03 22.452C13.4807 22.452 13.8273 22.5907 14.07 22.868C14.33 23.1453 14.46 23.4833 14.46 23.882Z" fill="#5E5E5E"/>
<circle cx="13.5" cy="15.5" r="13" stroke="#5E5E5E"/>
</svg>
