<svg width="16" height="16" viewBox="0 0 16 16" fill="none" xmlns="http://www.w3.org/2000/svg">
<g id="icon &#209;&#129;&#208;&#191;&#208;&#184;&#209;&#129;&#208;&#190;&#208;&#186; &#209;&#129;&#209;&#130;&#209;&#128;&#208;&#181;&#208;&#187;&#208;&#186;&#208;&#176;">
<path id="Vector" d="M2.89576 5.31652C2.96838 5.31761 3.03399 5.34514 3.08591 5.40565L7.79953 10.7462L12.9487 5.54706C13.0493 5.44238 13.2143 5.44485 13.3184 5.54597C13.4226 5.64709 13.4201 5.81298 13.3195 5.91766L7.9692 11.3195C7.92229 11.3652 7.85588 11.3908 7.78326 11.3897C7.78326 11.3897 7.78326 11.3897 7.77666 11.3896C7.70404 11.3885 7.63853 11.3543 7.59311 11.3006L2.69784 5.74495C2.60042 5.6373 2.60951 5.47151 2.72323 5.37366C2.77003 5.33454 2.83635 5.31563 2.89576 5.31652Z" fill="#5E5E5E" stroke="#5E5E5E" stroke-miterlimit="10"/>
</g>
</svg>
