<svg width="20" height="20" viewBox="0 0 20 20" fill="none" xmlns="http://www.w3.org/2000/svg">
<path d="M17.8691 10.3691C17.1599 9.50883 16.3243 8.76099 15.3909 8.1511M15.3909 8.1511C14.3862 7.49496 13.2642 7.03914 12.0865 6.80871C10.9951 6.5988 9.87363 6.5988 8.78218 6.8087C7.60455 7.03914 6.48253 7.49495 5.47784 8.1511M15.3909 8.1511L16.63 6.65175M2.99958 10.3691C3.70886 9.50883 4.54444 8.76099 5.47784 8.1511M5.47784 8.1511L4.23871 6.65175M12.0865 6.80953L12.4996 4.99958M8.78218 6.80953L8.36914 4.99957" stroke="#A59C9C" stroke-width="2" stroke-linecap="round" stroke-linejoin="round"/>
<path d="M3 10.7812C3.70928 11.6416 4.54486 12.3894 5.47826 12.9993C6.48295 13.6554 7.60497 14.1113 8.78261 14.3417C9.87406 14.5516 10.9955 14.5516 12.087 14.3417C13.2646 14.1113 14.3866 13.6554 15.3913 12.9993C16.3247 12.3894 17.1603 11.6416 17.8696 10.7812" stroke="#A59C9C" stroke-width="2" stroke-linecap="round" stroke-linejoin="round"/>
<circle cx="10.4352" cy="9.95669" r="3.30435" fill="#A59C9C"/>
</svg>
