<svg width="22" height="22" viewBox="0 0 22 22" fill="none" xmlns="http://www.w3.org/2000/svg">
<g id="icon check-circle-line" clip-path="url(#clip0_101_3209)">
<path id="Vector" d="M10.9998 3.66699C9.54944 3.66699 8.13162 4.09708 6.92566 4.90288C5.7197 5.70868 4.77977 6.85399 4.22472 8.19398C3.66968 9.53397 3.52446 11.0085 3.80742 12.431C4.09037 13.8535 4.78881 15.1602 5.81439 16.1858C6.83998 17.2114 8.14665 17.9098 9.56918 18.1927C10.9917 18.4757 12.4662 18.3305 13.8062 17.7754C15.1462 17.2204 16.2915 16.2805 17.0973 15.0745C17.9031 13.8685 18.3332 12.4507 18.3332 11.0003C18.3332 9.0554 17.5606 7.19014 16.1853 5.81488C14.81 4.43961 12.9448 3.66699 10.9998 3.66699ZM10.9998 17.1114C9.79118 17.1114 8.60966 16.753 7.60469 16.0815C6.59972 15.41 5.81645 14.4556 5.35391 13.3389C4.89137 12.2223 4.77035 10.9935 5.00615 9.80811C5.24195 8.62267 5.82398 7.53377 6.67863 6.67912C7.53329 5.82446 8.62218 5.24244 9.80762 5.00664C10.9931 4.77084 12.2218 4.89186 13.3385 5.3544C14.4551 5.81693 15.4095 6.60021 16.081 7.60517C16.7525 8.61014 17.111 9.79166 17.111 11.0003C17.111 11.8028 16.9529 12.5975 16.6458 13.3389C16.3387 14.0804 15.8885 14.7541 15.321 15.3215C14.7536 15.889 14.0799 16.3391 13.3385 16.6463C12.597 16.9534 11.8024 17.1114 10.9998 17.1114Z" fill="#8AA5BE"/>
<path id="Vector_2" d="M9.9857 14.5078L6.93015 11.4522C6.83003 11.3353 6.77772 11.1849 6.78366 11.0311C6.7896 10.8773 6.85336 10.7314 6.96219 10.6226C7.07103 10.5137 7.21693 10.45 7.37073 10.444C7.52453 10.4381 7.67491 10.4904 7.79182 10.5905L9.9857 12.7844L14.129 8.64109C14.2459 8.54097 14.3963 8.48866 14.5501 8.4946C14.7039 8.50054 14.8498 8.5643 14.9587 8.67313C15.0675 8.78197 15.1313 8.92786 15.1372 9.08167C15.1431 9.23547 15.0908 9.38585 14.9907 9.50275L9.9857 14.5078Z" fill="#8AA5BE"/>
</g>
<defs>
<clipPath id="clip0_101_3209">
<rect width="22" height="22" fill="white"/>
</clipPath>
</defs>
</svg>
