<svg width="63" height="63" viewBox="0 0 63 63" fill="none" xmlns="http://www.w3.org/2000/svg">
<g id="Group 95">
<circle id="Ellipse 16" cx="31.5" cy="31.5" r="31.5" fill="white"/>
<path id="Vector" d="M43.3125 23.625C43.3125 26.7579 42.068 29.7624 39.8527 31.9777C37.6374 34.193 34.6329 35.4375 31.5 35.4375C28.3671 35.4375 25.3626 34.193 23.1473 31.9777C20.932 29.7624 19.6875 26.7579 19.6875 23.625C19.6875 20.4921 20.932 17.4876 23.1473 15.2723C25.3626 13.057 28.3671 11.8125 31.5 11.8125C34.6329 11.8125 37.6374 13.057 39.8527 15.2723C42.068 17.4876 43.3125 20.4921 43.3125 23.625Z" fill="#5E5E5E"/>
<path id="Vector_2" fill-rule="evenodd" clip-rule="evenodd" d="M0 31.5C0 23.1457 3.31874 15.1335 9.22614 9.22614C15.1335 3.31874 23.1457 0 31.5 0C39.8543 0 47.8665 3.31874 53.7739 9.22614C59.6813 15.1335 63 23.1457 63 31.5C63 39.8543 59.6813 47.8665 53.7739 53.7739C47.8665 59.6813 39.8543 63 31.5 63C23.1457 63 15.1335 59.6813 9.22614 53.7739C3.31874 47.8665 0 39.8543 0 31.5ZM31.5 3.9375C26.3095 3.93778 21.2246 5.40368 16.8305 8.16648C12.4364 10.9293 8.91168 14.8767 6.66211 19.5544C4.41254 24.2321 3.52952 29.4499 4.11468 34.6073C4.69984 39.7647 6.7294 44.6521 9.96975 48.7069C12.7654 44.2024 18.9197 39.375 31.5 39.375C44.0803 39.375 50.2307 44.1984 53.0303 48.7069C56.2706 44.6521 58.3002 39.7647 58.8853 34.6073C59.4705 29.4499 58.5875 24.2321 56.3379 19.5544C54.0883 14.8767 50.5636 10.9293 46.1695 8.16648C41.7754 5.40368 36.6905 3.93778 31.5 3.9375Z" fill="#5E5E5E"/>
</g>
</svg>
