<svg width="18" height="19" viewBox="0 0 18 19" fill="none" xmlns="http://www.w3.org/2000/svg">
<g id="Group 31">
<path id="Vector" d="M4.17773 8.75879H6.02481V10.6059H4.17773V8.75879ZM4.17773 12.4529H6.02481V14.3H4.17773V12.4529ZM7.87189 8.75879H9.71897V10.6059H7.87189V8.75879ZM7.87189 12.4529H9.71897V14.3H7.87189V12.4529ZM11.5661 8.75879H13.4131V10.6059H11.5661V8.75879ZM11.5661 12.4529H13.4131V14.3H11.5661V12.4529Z" fill="#5E5E5E"/>
<path id="Vector_2" d="M2.33146 18.9176H15.261C16.2797 18.9176 17.1081 18.0892 17.1081 17.0705V4.14094C17.1081 3.12227 16.2797 2.29386 15.261 2.29386H13.4139V0.446777H11.5669V2.29386H6.02562V0.446777H4.17854V2.29386H2.33146C1.31279 2.29386 0.484375 3.12227 0.484375 4.14094V17.0705C0.484375 18.0892 1.31279 18.9176 2.33146 18.9176ZM15.261 5.98802L15.2619 17.0705H2.33146V5.98802H15.261Z" fill="#5E5E5E"/>
</g>
</svg>
