<svg width="43" height="16" viewBox="0 0 43 16" fill="none" xmlns="http://www.w3.org/2000/svg">
<path d="M9.63092 13.4611V15.3091H0.456919V0.0630816H2.59092V13.4611H9.63092ZM11.8651 0.0630816H13.9991V15.3091H11.8651V0.0630816ZM30.0933 0.0630816C29.536 1.67642 29.0007 3.17242 28.4873 4.55108C27.9887 5.91508 27.4973 7.21308 27.0133 8.44508C26.5293 9.67708 26.0453 10.8577 25.5613 11.9871C25.092 13.1017 24.608 14.2091 24.1093 15.3091H22.1073C21.6087 14.2091 21.1173 13.1017 20.6333 11.9871C20.164 10.8577 19.68 9.67708 19.1813 8.44508C18.6973 7.21308 18.1987 5.91508 17.6853 4.55108C17.172 3.17242 16.644 1.67642 16.1013 0.0630816H18.4553C19.2473 2.38041 20.0247 4.60975 20.7873 6.75108C21.55 8.89241 22.3347 10.9017 23.1413 12.7791C23.948 10.9164 24.7327 8.91442 25.4953 6.77308C26.258 4.61708 27.028 2.38041 27.8053 0.0630816H30.0933ZM32.2108 15.3091V0.0630816H41.5168V1.88908H34.3448V6.42108H40.7248V8.20308H34.3448V13.4831H42.0668V15.3091H32.2108Z" fill="#5E5E5E"/>
</svg>
