<svg width="25" height="19" viewBox="0 0 25 19" fill="none" xmlns="http://www.w3.org/2000/svg">
<g id="Group 29">
<path id="Vector" d="M12.6253 15.2516C11.7024 15.2516 10.8002 14.9779 10.0328 14.4651C9.26546 13.9524 8.66737 13.2236 8.31419 12.371C7.96101 11.5183 7.8686 10.5801 8.04865 9.6749C8.2287 8.76973 8.67312 7.93827 9.32572 7.28568C9.97831 6.63308 10.8098 6.18866 11.7149 6.00861C12.6201 5.82856 13.5584 5.92097 14.411 6.27415C15.2637 6.62733 15.9924 7.22542 16.5052 7.99279C17.0179 8.76016 17.2916 9.66235 17.2916 10.5853C17.2901 11.8224 16.7979 13.0084 15.9232 13.8831C15.0484 14.7579 13.8624 15.25 12.6253 15.2516ZM12.6253 8.2521C12.1638 8.2521 11.7127 8.38894 11.3291 8.64531C10.9454 8.90168 10.6463 9.26607 10.4697 9.6924C10.2932 10.1187 10.2469 10.5878 10.337 11.0404C10.427 11.493 10.6492 11.9087 10.9755 12.235C11.3018 12.5613 11.7175 12.7836 12.1701 12.8736C12.6227 12.9636 13.0918 12.9174 13.5182 12.7408C13.9445 12.5642 14.3089 12.2652 14.5652 11.8815C14.8216 11.4978 14.9584 11.0467 14.9584 10.5853C14.9578 9.96666 14.7118 9.37357 14.2744 8.93615C13.837 8.49873 13.2439 8.25272 12.6253 8.2521Z" fill="#5E5E5E"/>
<path id="Vector_2" d="M21.9574 18.7517H3.29214C2.67335 18.7517 2.0799 18.5058 1.64235 18.0683C1.2048 17.6307 0.958984 17.0373 0.958984 16.4185V5.91931C0.958984 5.30052 1.2048 4.70707 1.64235 4.26952C2.0799 3.83197 2.67335 3.58616 3.29214 3.58616H7.11851L7.75196 1.6823C7.90677 1.21753 8.20394 0.813264 8.60135 0.526826C8.99876 0.240388 9.47625 0.0863079 9.96613 0.0864258H15.2834C15.7733 0.0863079 16.2508 0.240388 16.6482 0.526826C17.0456 0.813264 17.3427 1.21753 17.4976 1.6823L18.131 3.58616H21.9574C22.5762 3.58616 23.1696 3.83197 23.6072 4.26952C24.0447 4.70707 24.2905 5.30052 24.2905 5.91931V16.4185C24.2905 17.0373 24.0447 17.6307 23.6072 18.0683C23.1696 18.5058 22.5762 18.7517 21.9574 18.7517ZM3.29214 16.4185H21.9574V5.91931H16.4511L15.2846 2.41958H9.96496L8.79838 5.91931H3.29214V16.4185Z" fill="#5E5E5E"/>
</g>
</svg>
