<svg width="18" height="18" viewBox="0 0 18 18" fill="none" xmlns="http://www.w3.org/2000/svg">
<g id="Group 83">
<path id="Vector" fill-rule="evenodd" clip-rule="evenodd" d="M5.17391 12.537C4.72138 12.0845 4.17764 11.8582 3.54271 11.8582L0.0186773 11.8582L0.0186771 14.1671L3.54271 14.1671L3.54271 17.6304L5.85156 17.6304L5.85156 14.1671C5.85233 13.5329 5.62645 12.9896 5.17391 12.537Z" fill="#5E5E5E"/>
<path id="Vector_2" fill-rule="evenodd" clip-rule="evenodd" d="M12.3651 5.28375C12.8177 5.73629 13.3614 5.96255 13.9964 5.96255L17.5204 5.96255V3.6537L13.9964 3.6537V0.19043L11.6875 0.19043V3.6537C11.6867 4.28787 11.9126 4.83122 12.3651 5.28375Z" fill="#5E5E5E"/>
<path id="Vector_3" fill-rule="evenodd" clip-rule="evenodd" d="M5.11285 5.3453C5.56539 4.89277 5.79166 4.34903 5.79166 3.7141L5.79166 0.190064L3.48281 0.190064L3.48281 3.7141L0.0195313 3.7141L0.0195313 6.02295L3.48281 6.02295C4.11697 6.02372 4.66032 5.79783 5.11285 5.3453Z" fill="#5E5E5E"/>
<path id="Vector_4" fill-rule="evenodd" clip-rule="evenodd" d="M12.4262 12.4745C11.9737 12.9271 11.7474 13.4708 11.7474 14.1057L11.7474 17.6298L14.0563 17.6298L14.0563 14.1057L17.5195 14.1057L17.5195 11.7969L14.0563 11.7969C13.4221 11.7961 12.8787 12.022 12.4262 12.4745Z" fill="#5E5E5E"/>
</g>
</svg>
