<svg width="25" height="21" viewBox="0 0 25 21" fill="none" xmlns="http://www.w3.org/2000/svg">
<path fill-rule="evenodd" clip-rule="evenodd" d="M2.16725 18.3839V2.45045H22.2125V18.3839H2.16725ZM1.39628 0.394531C0.686621 0.394531 0.111328 0.969823 0.111328 1.67948V19.1548C0.111328 19.8645 0.68662 20.4398 1.39628 20.4398H22.9835C23.6931 20.4398 24.2684 19.8645 24.2684 19.1548V1.67948C24.2684 0.969824 23.6931 0.394531 22.9835 0.394531H1.39628ZM1.91026 2.19393H1.90976V18.6413H22.469V18.6408H1.91026V2.19393ZM23.6812 19.9097C23.884 19.722 24.0109 19.4534 24.0109 19.1553V1.67995C24.0109 1.11222 23.5507 0.651987 22.983 0.651987H1.39578C1.12694 0.651987 0.882213 0.755183 0.699039 0.924122C0.882268 0.754907 1.1272 0.651522 1.39628 0.651522H22.9835C23.5512 0.651522 24.0114 1.11176 24.0114 1.67948V19.1548C24.0114 19.4532 23.8843 19.7219 23.6812 19.9097Z" fill="#5E5E5E"/>
<path d="M10.6875 14.2461C10.4942 13.8594 10.2809 13.4694 10.0475 13.0761C9.82085 12.6761 9.55752 12.2694 9.25752 11.8561C9.16419 11.9761 9.04419 12.1428 8.89752 12.3561C8.75752 12.5694 8.61419 12.7961 8.46752 13.0361C8.32752 13.2761 8.19419 13.5061 8.06752 13.7261C7.94085 13.9461 7.84752 14.1194 7.78752 14.2461H6.00752C6.30085 13.7061 6.64085 13.1394 7.02752 12.5461C7.42085 11.9528 7.85752 11.3228 8.33752 10.6561L6.10752 7.31609H7.99752L9.34752 9.47609L10.6675 7.31609H12.4475L10.2475 10.6761C10.8075 11.4028 11.2775 12.0761 11.6575 12.6961C12.0375 13.3094 12.3375 13.8261 12.5575 14.2461H10.6875ZM13.3556 8.75609C13.5489 8.67609 13.7489 8.58609 13.9556 8.48609C14.1689 8.37943 14.3756 8.26609 14.5756 8.14609C14.7756 8.01943 14.9656 7.88943 15.1456 7.75609C15.3322 7.61609 15.4989 7.46943 15.6456 7.31609H16.6856V14.2461H15.1956V9.25609C14.9956 9.38943 14.7722 9.51276 14.5256 9.62609C14.2789 9.73276 14.0389 9.82609 13.8056 9.90609L13.3556 8.75609Z" fill="#5E5E5E"/>
</svg>
