<svg width="19" height="20" viewBox="0 0 19 20" fill="none" xmlns="http://www.w3.org/2000/svg">
<path id="Vector" d="M16.7759 11.0357H12.1957V9.18137H16.7759C16.5704 7.5465 15.8264 6.02658 14.6613 4.86145C13.4962 3.69633 11.9762 2.95233 10.3414 2.74687V7.32705H8.48704V2.74687C6.85216 2.95233 5.33224 3.69633 4.16712 4.86145C3.00199 6.02658 2.258 7.5465 2.05253 9.18137H6.63271V11.0357H2.05253C2.258 12.6706 3.00199 14.1905 4.16712 15.3556C5.33224 16.5207 6.85216 17.2647 8.48704 17.4702V12.89H10.3414V17.4702C11.9762 17.2647 13.4962 16.5207 14.6613 15.3556C15.8264 14.1905 16.5704 12.6706 16.7759 11.0357ZM9.4142 19.3802C6.95521 19.3802 4.59694 18.4033 2.85817 16.6646C1.11941 14.9258 0.142578 12.5675 0.142578 10.1085C0.142578 7.64955 1.11941 5.29127 2.85817 3.55251C4.59694 1.81374 6.95521 0.836914 9.4142 0.836914C11.8732 0.836914 14.2315 1.81374 15.9702 3.55251C17.709 5.29127 18.6858 7.64955 18.6858 10.1085C18.6858 12.5675 17.709 14.9258 15.9702 16.6646C14.2315 18.4033 11.8732 19.3802 9.4142 19.3802Z" fill="#5E5E5E"/>
</svg>
