<svg width="21" height="20" viewBox="0 0 21 20" fill="none" xmlns="http://www.w3.org/2000/svg">
<g id="Group 34">
<path id="Ellipse 9 (Stroke)" fill-rule="evenodd" clip-rule="evenodd" d="M10.6483 17.8685C14.9538 17.8685 18.4442 14.3781 18.4442 10.0726C18.4442 5.76701 14.9538 2.27666 10.6483 2.27666C6.3427 2.27666 2.85235 5.76701 2.85235 10.0726C2.85235 14.3781 6.3427 17.8685 10.6483 17.8685ZM10.6483 19.9474C16.102 19.9474 20.5231 15.5263 20.5231 10.0726C20.5231 4.61886 16.102 0.197754 10.6483 0.197754C5.19455 0.197754 0.773438 4.61886 0.773438 10.0726C0.773438 15.5263 5.19455 19.9474 10.6483 19.9474Z" fill="#5E5E5E"/>
<path id="Vector 2 (Stroke)" fill-rule="evenodd" clip-rule="evenodd" d="M8.05661 6.04947C8.38249 5.86496 8.78243 5.87001 9.10355 6.06268L14.3008 9.18105C14.6139 9.3689 14.8055 9.70725 14.8055 10.0724C14.8055 10.4375 14.6139 10.7758 14.3008 10.9637L9.10355 14.0821C8.78243 14.2747 8.38249 14.2798 8.05661 14.0953C7.73074 13.9108 7.5293 13.5652 7.5293 13.1907V6.95401C7.5293 6.57952 7.73074 6.23398 8.05661 6.04947ZM9.60821 8.78988V11.3549L11.7457 10.0724L9.60821 8.78988Z" fill="#5E5E5E"/>
</g>
</svg>
