<svg width="23" height="19" viewBox="0 0 23 19" fill="none" xmlns="http://www.w3.org/2000/svg">
<path id="Vector (Stroke)" fill-rule="evenodd" clip-rule="evenodd" d="M10.2981 2.85397C10.2991 2.85931 10.2999 2.86709 10.2999 2.87776V16.7001C10.2999 16.7109 10.2991 16.7188 10.2981 16.7242L7.37678 13.4151L7.36262 13.3994C7.18012 13.2014 6.95901 13.0432 6.71307 12.9348C6.46713 12.8264 6.20162 12.77 5.93308 12.7692H2.40631C2.40107 12.7627 2.39436 12.7499 2.39436 12.7285V6.84844C2.39436 6.82772 2.40091 6.8152 2.40617 6.8087H5.93804L5.94155 6.8087C6.20576 6.80775 6.46704 6.75303 6.70964 6.64782C6.95224 6.54261 7.17114 6.38909 7.35312 6.19653C7.36107 6.18812 7.36888 6.17956 7.37653 6.17087L10.2981 2.85397ZM8.88854 1.45849C10.1877 0.0986243 12.2763 1.1501 12.2763 2.87776V16.7001C12.2763 18.4417 10.1606 19.4858 8.87083 18.1001C8.8649 18.0938 8.85906 18.0873 8.8533 18.0808L5.91807 14.756H2.39436C1.26629 14.756 0.417969 13.8106 0.417969 12.7285V6.84844C0.417969 5.76671 1.26689 4.82187 2.39436 4.82187H5.92491L8.86145 1.48803C8.87028 1.478 8.87931 1.46816 8.88854 1.45849ZM17.4908 2.14899C17.8677 1.75219 18.4932 1.73767 18.888 2.11656C23.2323 6.28677 23.266 13.3114 18.8835 17.4656C18.4864 17.842 17.861 17.8236 17.4865 17.4244C17.1121 17.0252 17.1305 16.3965 17.5276 16.0201C21.0743 12.6581 21.0606 6.94917 17.5231 3.55352C17.1284 3.17462 17.1139 2.54579 17.4908 2.14899ZM14.6482 5.51716C15.0848 5.18805 15.7042 5.27711 16.0316 5.71609C16.8577 6.82382 17.2171 8.3539 17.2171 9.78895C17.2171 11.224 16.8577 12.7541 16.0316 13.8618C15.7042 14.3008 15.0848 14.3899 14.6482 14.0608C14.2115 13.7316 14.1229 13.109 14.4503 12.67C14.9414 12.0114 15.2407 10.9477 15.2407 9.78895C15.2407 8.63019 14.9414 7.56646 14.4503 6.9079C14.1229 6.46892 14.2115 5.84627 14.6482 5.51716Z" fill="#5E5E5E"/>
</svg>
