<svg width="20" height="25" viewBox="0 0 20 25" fill="none" xmlns="http://www.w3.org/2000/svg">
<g id="Group 118">
<path id="Vector" d="M10.1998 5.37104C10.1219 5.37189 10.0445 5.35737 9.97216 5.32831C9.89982 5.29926 9.83391 5.25624 9.77819 5.20172C9.72248 5.14719 9.67805 5.08222 9.64744 5.01053C9.61684 4.93883 9.60065 4.8618 9.59982 4.78385C9.59982 2.51189 11.4814 0.671929 13.7981 0.671929C13.8761 0.670873 13.9536 0.685246 14.026 0.714222C14.0985 0.743199 14.1645 0.786208 14.2202 0.840776C14.276 0.895344 14.3204 0.960395 14.3509 1.03219C14.3815 1.10398 14.3975 1.1811 14.3981 1.25912C14.3981 3.53108 12.5182 5.37104 10.1998 5.37104ZM18.9596 17.7404C19.1916 17.91 19.2668 18.2204 19.1356 18.4732C17.0237 22.6107 15.3389 24.6715 13.7997 24.6715C13.083 24.6715 12.379 24.4443 11.6926 24.0027C11.1999 23.6864 10.6294 23.5124 10.0441 23.5C9.45882 23.4876 8.88147 23.6372 8.37584 23.9323C7.54386 24.4203 6.75187 24.6715 5.99989 24.6715C3.73593 24.6715 0 17.8444 0 14.0989C0 10.099 2.14236 7.04941 5.3999 7.04941C6.93267 7.04941 8.25584 7.27021 9.36782 7.7198C9.83821 7.90859 10.371 7.89579 10.8302 7.6798C11.7326 7.25421 12.923 7.04941 14.3981 7.04941C16.2013 7.04941 17.7741 7.92939 19.0796 9.63336C19.1269 9.69481 19.1613 9.76511 19.1808 9.8401C19.2004 9.91509 19.2047 9.99324 19.1935 10.0699C19.1823 10.1466 19.1559 10.2203 19.1157 10.2865C19.0755 10.3528 19.0225 10.4104 18.9596 10.4557C17.5021 11.5277 16.7997 12.7293 16.7997 14.0989C16.7997 15.4669 17.5021 16.67 18.9596 17.7404Z" fill="black"/>
<path id="Vector_2" d="M18.9596 17.7408C19.1916 17.9104 19.2668 18.2208 19.1356 18.4736C17.0237 22.6111 15.3389 24.6719 13.7997 24.6719C13.083 24.6719 12.379 24.4447 11.6926 24.0031C11.1999 23.6868 10.6294 23.5128 10.0441 23.5004C9.45882 23.488 8.88147 23.6376 8.37584 23.9327C7.54386 24.4207 6.75187 24.6719 5.99989 24.6719C3.73593 24.6719 0 17.8448 0 14.0993C0 10.0993 2.14236 7.0498 5.3999 7.0498C6.93267 7.0498 8.25584 7.2706 9.36782 7.72019C9.83821 7.90899 10.371 7.89619 10.8302 7.68019C11.7326 7.2546 12.923 7.0498 14.3981 7.0498C16.2013 7.0498 17.7741 7.92979 19.0796 9.63376C19.1269 9.6952 19.1613 9.7655 19.1808 9.84049C19.2004 9.91548 19.2047 9.99363 19.1935 10.0703C19.1823 10.147 19.1559 10.2207 19.1157 10.2869C19.0755 10.3532 19.0225 10.4107 18.9596 10.4561C17.5021 11.5281 16.7997 12.7297 16.7997 14.0993C16.7997 15.4672 17.5021 16.6704 18.9596 17.7408Z" fill="black"/>
</g>
</svg>
