<svg width="24" height="25" viewBox="0 0 24 25" fill="none" xmlns="http://www.w3.org/2000/svg">
<g id="Group 119">
<path id="Vector" d="M23.7666 10.3217H22.8V10.2719H12V15.0719H18.7818C17.7924 17.8661 15.1338 19.8719 12 19.8719C8.0238 19.8719 4.8 16.6481 4.8 12.6719C4.8 8.69568 8.0238 5.47188 12 5.47188C13.8354 5.47188 15.5052 6.16428 16.7766 7.29528L20.1708 3.90108C18.0276 1.90368 15.1608 0.671875 12 0.671875C5.373 0.671875 0 6.04488 0 12.6719C0 19.2989 5.373 24.6719 12 24.6719C18.627 24.6719 24 19.2989 24 12.6719C24 11.8673 23.9172 11.0819 23.7666 10.3217Z" fill="#FFC107"/>
<path id="Vector_2" d="M1.38354 7.08647L5.32614 9.97787C6.39294 7.33667 8.97655 5.47187 11.9999 5.47187C13.8353 5.47187 15.5051 6.16427 16.7765 7.29527L20.1707 3.90107C18.0275 1.90367 15.1607 0.671875 11.9999 0.671875C7.39075 0.671875 3.39354 3.27407 1.38354 7.08647Z" fill="#FF3D00"/>
<path id="Vector_3" d="M12.0001 24.6721C15.0997 24.6721 17.9161 23.4859 20.0455 21.5569L16.3315 18.4141C15.0863 19.3611 13.5646 19.8733 12.0001 19.8721C8.87894 19.8721 6.22874 17.8819 5.23034 15.1045L1.31714 18.1195C3.30314 22.0057 7.33634 24.6721 12.0001 24.6721Z" fill="#4CAF50"/>
<path id="Vector_4" d="M23.7666 10.3213H22.8V10.2715H12V15.0715H18.7818C18.3085 16.4013 17.456 17.5634 16.3296 18.4141L16.3314 18.4129L20.0454 21.5557C19.7826 21.7945 24 18.6715 24 12.6715C24 11.8669 23.9172 11.0815 23.7666 10.3213Z" fill="#1976D2"/>
</g>
</svg>
