<svg width="24" height="23" viewBox="0 0 24 23" fill="none" xmlns="http://www.w3.org/2000/svg">
<g id="Frame" clip-path="url(#clip0_322_1386)">
<path id="Vector" fill-rule="evenodd" clip-rule="evenodd" d="M24 9.662L22.973 9.6936C22.8782 9.6936 22.2462 9.6778 21.6458 9.2354C21.6932 9.2354 21.7406 9.2512 21.788 9.2512C22.42 9.2512 23.0362 8.87201 23.2732 8.33481L23.7156 7.35522C23.1626 7.35522 22.657 7.29202 22.657 7.29202C22.657 7.29202 22.2462 7.24462 21.788 6.77062C21.4562 6.43883 21.0454 6.24923 20.603 6.24923C20.4134 6.24923 20.2396 6.28083 20.0816 6.32823C20.0974 6.24923 20.129 6.17023 20.1448 6.09123C20.287 5.17484 19.7024 4.47964 19.7024 4.47964L18.9282 3.53165L18.4542 4.65344C18.4542 4.65344 18.3278 4.92204 18.1066 5.04844C18.0435 4.71664 17.8855 4.35324 17.5379 3.98985C16.8901 3.32625 16.1001 3.21565 15.6893 3.21565C15.4997 3.21565 15.3575 3.23145 15.3259 3.24725L14.3937 3.43685C14.4411 3.23145 14.5675 2.86806 14.7729 2.53626L15.2943 1.73047L13.9987 1.87266L13.5405 0.987872L12.7347 1.39867L12.0079 0.671875L11.2653 1.39867L10.4595 0.987872L10.0487 1.85687L8.75313 1.71467L9.27452 2.52046C9.47992 2.85226 9.60632 3.21565 9.65372 3.42105L8.76893 3.24725H8.73733C8.68993 3.24725 8.56353 3.21565 8.35813 3.21565C7.94733 3.21565 7.15734 3.31045 6.50955 3.98985C6.16195 4.33744 6.00395 4.71664 5.94075 5.04844C5.71955 4.92204 5.60895 4.66924 5.60895 4.66924L5.13496 3.54745L4.34496 4.51124C4.25016 4.63764 3.77617 5.28544 3.90257 6.12283C3.91837 6.20183 3.93417 6.28083 3.96577 6.35983C3.82357 6.31243 3.64977 6.28083 3.44437 6.28083C3.00198 6.28083 2.59118 6.45463 2.25938 6.80222C1.80119 7.27622 1.48519 7.30782 1.40619 7.32362C1.32719 7.33942 0.947992 7.35522 0.300198 7.33942L0.742594 8.31901C0.979592 8.85621 1.59579 9.2354 2.22778 9.2354C2.27518 9.2354 2.32258 9.2354 2.36998 9.2196C1.75379 9.662 1.12179 9.6778 1.04279 9.6778L0 9.662L0.315997 10.6574C0.473996 11.163 1.01119 12.0162 2.03818 12.111C1.92758 12.5692 1.67479 13.0906 1.13759 13.3276L0.363397 13.6436L0.789993 14.3862C1.02699 14.7812 1.59579 15.2552 2.40158 15.2552C2.57538 15.2552 2.74918 15.2394 2.90718 15.2078C2.95458 15.3974 3.00198 15.5712 3.06517 15.7607C3.30217 16.4717 3.09677 16.9615 3.09677 16.9773L2.68598 17.7357L3.55497 17.9569C3.57077 17.9569 3.82357 18.0359 4.15537 18.0359C4.29756 18.0359 4.43976 18.0201 4.58196 17.9885C4.67676 17.9727 4.77156 17.9411 4.86636 17.8937C4.97696 18.0991 5.11916 18.2729 5.27716 18.4309C5.83015 18.9997 6.60435 19.2841 7.59974 19.2841L8.31073 19.2683L6.85714 19.8687L7.96313 20.4059C8.37393 20.5955 8.84793 20.8325 9.33772 21.0063L9.19552 21.3855L9.57472 21.5593C9.60632 21.5751 10.3489 21.9069 11.5655 21.9701C11.5655 21.9701 11.8657 21.9859 12.0237 21.9859C12.1817 21.9859 12.4819 21.9701 12.4819 21.9701C13.6985 21.8911 14.4253 21.5751 14.4569 21.5593L14.8361 21.3855L14.6939 21.0063C15.1995 20.8167 15.6893 20.5797 16.0843 20.3901L17.1745 19.8687L15.7209 19.2683L16.4319 19.2841C17.4273 19.2841 18.2014 18.9997 18.7544 18.4309C18.9124 18.2729 19.0388 18.0833 19.1652 17.8937C19.26 17.9253 19.3548 17.9569 19.4496 17.9885C19.576 18.0201 19.7182 18.0359 19.8762 18.0359C20.1922 18.0359 20.4608 17.9727 20.4608 17.9569L21.3298 17.7357L20.9506 16.9457C20.9348 16.9299 20.7294 16.4243 20.9822 15.7133C21.0454 15.5396 21.0928 15.35 21.1402 15.1604C21.2982 15.192 21.472 15.2078 21.6458 15.2078C22.6728 15.2078 23.1626 14.4968 23.2574 14.3388L23.684 13.612L22.9098 13.296C22.3726 13.0748 22.1198 12.5534 22.0092 12.0794C23.0204 11.9846 23.5576 11.1472 23.7314 10.6258L24 9.662Z" fill="#FEFEFE"/>
<path id="Vector_2" fill-rule="evenodd" clip-rule="evenodd" d="M13.7143 3.08881C13.2403 2.82021 12.6241 2.67801 12.0079 2.67801C11.3917 2.67801 10.7755 2.82021 10.3015 3.08881C10.2541 2.94661 10.1909 2.77281 10.1119 2.58321L10.2857 2.59901L10.4753 2.61481L10.5543 2.44101L10.7913 1.93542L11.2337 2.15661L11.4075 2.23561L11.5339 2.14081L12.0079 1.68262L12.4819 2.14081L12.6241 2.26721L12.7979 2.18821L13.2245 1.96701L13.4615 2.47261L13.5405 2.64641L13.7301 2.63061L13.9039 2.61481C13.8091 2.77281 13.7459 2.94661 13.7143 3.08881ZM12.0079 3.705C11.1863 3.705 10.5543 3.9736 10.4279 4.2896L12.0079 4.90579L13.5879 4.2896C13.4457 3.9736 12.8295 3.705 12.0079 3.705ZM12.0237 20.1685H11.9921C11.4865 20.1685 10.8071 20.0737 10.4753 19.9789L10.0803 21.0533C10.3489 21.1481 11.2337 21.3219 12.0237 21.3219C12.8137 21.3219 13.6985 21.1481 13.9671 21.0533L13.5721 19.9789C13.2087 20.0737 12.5135 20.1685 12.0237 20.1685ZM13.6985 19.6313C14.0777 19.5207 14.757 19.2679 15.0414 19.0941L14.836 19.7419L15.5154 19.9631C15.1046 20.1685 14.6148 20.3581 14.0145 20.5161L13.6985 19.6313ZM8.9585 19.0941L9.16389 19.7419L8.4845 19.9631C8.8953 20.1685 9.38509 20.3581 9.98549 20.5161L10.3173 19.6313C9.92229 19.5207 9.25869 19.2679 8.9585 19.0941ZM21.5194 8.46076C21.5984 8.49236 21.6774 8.50816 21.7722 8.50816C22.1198 8.50816 22.4674 8.28696 22.578 8.01836C22.578 8.01836 21.9302 7.98676 21.235 7.27577C21.0138 7.05457 20.7768 6.97557 20.5714 6.97557C20.2554 6.97557 20.0184 7.13357 20.0184 7.13357C20.4766 7.37057 20.7294 7.68657 20.9506 7.95516C21.156 8.19216 21.2982 8.38176 21.5194 8.46076ZM2.48055 8.46076C2.40155 8.49236 2.32255 8.50816 2.24355 8.50816C1.89595 8.50816 1.54836 8.28696 1.43776 8.01836C1.43776 8.01836 2.08555 7.98676 2.78075 7.27577C3.00194 7.05457 3.23894 6.97557 3.44434 6.97557C3.76034 6.97557 3.99734 7.13357 3.99734 7.13357C3.53914 7.37057 3.28634 7.68657 3.06514 7.95516C2.84395 8.19216 2.70175 8.38176 2.48055 8.46076ZM21.2666 13.5957C20.6188 13.2797 20.208 12.4265 20.1132 12.1263C20.0026 13.8011 19.181 14.9703 18.2172 16.0921C17.7116 16.6767 17.5378 17.2455 17.5378 17.2455C17.5378 17.2455 17.6326 16.5977 18.0592 16.0763C18.9598 15.0019 19.813 13.6589 19.8762 12.1105C19.9236 11.0361 19.6392 10.1513 19.2126 9.44035C19.4496 10.1987 19.418 11.1151 18.5964 11.9683C18.5964 11.9683 20.2396 10.0091 17.9486 7.98676C17.3008 7.44957 16.5898 7.05457 16.0684 6.73858C15.8472 6.61218 15.6576 6.50158 15.5154 6.40678C17.3956 7.02297 18.312 6.34358 18.312 6.34358C17.7116 6.86497 16.9374 6.84917 16.4634 6.77017C16.5898 6.83337 16.732 6.89657 16.8742 6.97557C18.4542 7.82877 19.8762 9.23495 20.1132 11.1783V11.1625C20.4608 13.1059 21.2666 13.5957 21.2666 13.5957ZM21.7564 11.3679C21.7722 11.3679 21.788 11.3679 21.8038 11.3679C22.6886 11.3679 22.9888 10.4357 22.9888 10.4357H22.973C22.815 10.4357 21.5036 10.4041 20.5714 9.23495C20.5398 9.20335 20.524 9.17175 20.4924 9.14016C19.9236 8.41336 19.418 7.78137 18.47 7.52857L18.3752 7.51277L18.3594 7.41797C18.3278 7.27577 18.4384 7.13357 18.6754 6.97557C20.0342 6.09078 19.1178 4.95319 19.1178 4.95319C19.1178 4.95319 18.7228 5.85378 17.8538 5.85378C17.838 5.85378 17.838 5.85378 17.8222 5.85378C17.8064 5.85378 17.8064 5.85378 17.7906 5.85378H17.7748C17.68 5.85378 17.601 5.83798 17.5062 5.82218L17.3482 5.79058C17.3482 5.79058 17.601 5.12699 17.0006 4.51079C16.5424 4.0526 16.0052 3.9736 15.6892 3.9736C15.5312 3.9736 15.4206 3.9894 15.4206 3.9894C15.7208 4.38439 15.942 5.03219 15.5944 5.42719C15.4838 5.55359 15.2942 5.64838 15.1204 5.72738C14.836 5.85378 14.5674 5.98018 14.5674 6.29618C14.5674 6.51738 14.7728 6.77017 15.1362 6.99137C16.2422 7.68657 17.3324 8.60296 17.7906 9.81955C18.3594 11.3521 17.7116 12.3633 16.811 12.9479C16.811 12.9479 17.0954 13.2165 17.5062 13.2481C17.5852 13.2639 17.68 13.2639 17.7432 13.2639C18.628 13.2639 19.0704 12.8531 19.0704 12.8531C19.0704 12.8531 18.9914 13.4219 18.5332 13.9433C18.1066 14.4331 17.5536 14.7175 16.7162 14.7333C16.7162 14.7333 16.6846 15.1283 17.0638 15.4601C17.3008 15.6655 17.8538 15.7445 17.8538 15.7445C17.8538 15.7445 16.8268 15.9499 16.7004 17.4667C16.6372 18.2883 16.4318 18.5727 16.4318 18.5727H16.4476C18.8492 18.5727 18.786 16.5187 18.786 16.5187C18.786 16.5187 18.9598 17.1191 19.6234 17.2771C19.7024 17.2929 19.7972 17.3087 19.8762 17.3087C20.0974 17.3087 20.2712 17.2613 20.2712 17.2613C20.2712 17.2613 19.9236 16.5187 20.2712 15.4917C20.5556 14.6385 20.5082 14.0065 20.5082 14.0065C20.5082 14.0065 20.8242 14.4963 21.63 14.4963H21.6458C22.3094 14.4963 22.6096 13.9907 22.6096 13.9907C21.0138 13.3271 21.1718 11.1941 21.1718 11.1941C21.1718 11.1941 21.3456 11.3521 21.7564 11.3679ZM3.88674 12.1263C3.99734 13.8011 4.81893 14.9703 5.78272 16.0921C6.28832 16.6767 6.46212 17.2455 6.46212 17.2455C6.46212 17.2455 6.36732 16.5977 5.92492 16.0763C5.02433 15.0019 4.17114 13.6589 4.10794 12.1105C4.06054 11.0361 4.34493 10.1513 4.77153 9.44035C4.53453 10.1987 4.56613 11.1151 5.38772 11.9683C5.38772 11.9683 3.74454 10.0091 6.05132 7.98676C6.69911 7.44957 7.39431 7.05457 7.9315 6.73858C8.1527 6.61218 8.3423 6.50158 8.5003 6.40678C6.63591 7.02297 5.71952 6.35938 5.71952 6.35938C6.31992 6.88077 7.09411 6.86497 7.56811 6.78597H7.55231C7.42591 6.84917 7.29951 6.91237 7.15731 6.99137C5.57732 7.84457 4.15534 9.25075 3.91834 11.1941V11.1783C3.55494 13.0901 2.73335 13.5799 2.73335 13.5799C3.38114 13.2797 3.79194 12.4265 3.88674 12.1263ZM6.96771 15.4285C6.73071 15.6339 6.17772 15.7129 6.17772 15.7129C6.17772 15.7129 7.20471 15.9183 7.33111 17.4351C7.39431 18.2567 7.59971 18.5411 7.59971 18.5411H7.58391C5.18233 18.5411 5.24553 16.4871 5.24553 16.4871C5.24553 16.4871 5.07173 17.0875 4.40813 17.2455C4.32913 17.2613 4.25013 17.2771 4.15534 17.2771C3.93414 17.2771 3.76034 17.2297 3.76034 17.2297C3.76034 17.2297 4.10794 16.4871 3.76034 15.4601C3.47594 14.6069 3.52334 13.9749 3.52334 13.9749C3.52334 13.9749 3.20734 14.4647 2.40155 14.4647H2.36995C1.70636 14.4647 1.40616 13.9591 1.40616 13.9591C3.00194 13.2955 2.84395 11.1625 2.84395 11.1625C2.84395 11.1625 2.63855 11.3205 2.22775 11.3363C2.21195 11.3363 2.19615 11.3363 2.18035 11.3363C1.29556 11.3363 0.995361 10.4041 0.995361 10.4041H1.01116C1.16916 10.4041 2.48055 10.3725 3.41274 9.20335C3.44434 9.17176 3.46014 9.14016 3.49174 9.10856C4.06054 8.38176 4.56613 7.74977 5.51412 7.49697L5.60892 7.48117L5.62472 7.38637C5.65632 7.24417 5.54572 7.10197 5.30873 6.94397C3.94994 6.05918 4.86633 4.92159 4.86633 4.92159C4.86633 4.92159 5.24553 5.82218 6.13032 5.82218C6.14612 5.82218 6.14612 5.82218 6.16192 5.82218C6.17772 5.82218 6.17772 5.82218 6.19352 5.82218H6.22512C6.31992 5.82218 6.39892 5.80638 6.49372 5.79058L6.65171 5.75898C6.65171 5.75898 6.39892 5.09539 6.99931 4.47919C7.45751 4.021 7.9947 3.942 8.3107 3.942C8.4687 3.942 8.5635 3.9578 8.5635 3.9578C8.2633 4.3528 8.0421 5.00059 8.3897 5.39559C8.5003 5.52199 8.6899 5.61678 8.8637 5.69578C9.14809 5.82218 9.41669 5.94858 9.41669 6.26458C9.41669 6.48578 9.21129 6.73857 8.8479 6.95977C7.74191 7.65497 6.65171 8.57136 6.19352 9.78795C5.68792 11.3363 6.31992 12.3475 7.23631 12.9321C7.23631 12.9321 6.95191 13.2007 6.54112 13.2323C6.46212 13.2481 6.36732 13.2481 6.30412 13.2481C5.43512 13.2481 4.97693 12.8373 4.97693 12.8373C4.97693 12.8373 5.05593 13.4061 5.49832 13.9275C5.92492 14.4173 6.47792 14.7017 7.31531 14.7017C7.29951 14.7017 7.33111 15.0967 6.96771 15.4285ZM11.4549 8.17636H12.0237H12.5925V8.55556C12.4661 8.39756 12.1975 8.42916 12.1975 8.42916V8.98216C12.1975 8.98216 12.2133 9.25075 12.3081 9.37715H12.0237H11.7393C11.8341 9.26655 11.8499 8.98216 11.8499 8.98216V8.42916C11.8499 8.42916 11.5971 8.39756 11.4549 8.55556V8.17636ZM10.2225 8.23956C10.2541 8.28696 10.3015 8.33436 10.3331 8.36596C10.3331 8.38176 10.3489 8.38176 10.3489 8.39756C10.3805 8.44496 10.4121 8.49236 10.4437 8.53976L10.4595 8.55556C10.5069 8.61876 10.5385 8.68196 10.5701 8.74516C10.9177 9.34555 11.4707 9.69315 11.9605 9.69315C12.4503 9.69315 13.0033 9.32975 13.3509 8.74516C13.3825 8.68196 13.4299 8.61876 13.4615 8.55556C13.4615 8.53976 13.4773 8.53976 13.4773 8.52396C13.5089 8.47656 13.5405 8.42916 13.5879 8.38176L13.6037 8.36596L13.6195 8.35016C13.6511 8.30276 13.6985 8.25536 13.7459 8.20796C13.7459 8.20796 13.7459 8.20796 13.7617 8.19216C13.7617 8.19216 13.7617 8.19216 13.7775 8.17636C13.9513 8.00256 14.1567 7.86037 14.4411 7.78137L14.3147 7.71817L13.8407 7.46537L13.3351 7.18097L12.0079 7.90777L10.6649 7.18097L10.1593 7.46537L9.66949 7.74977L9.54309 7.81297C9.81169 7.89197 10.0329 8.01836 10.2067 8.20796C10.2067 8.20796 10.2067 8.22376 10.2225 8.23956C10.2225 8.22376 10.2225 8.22376 10.2225 8.23956ZM11.5813 6.09078V5.72738L10.9177 5.45879C10.9177 5.45879 10.9177 5.66418 11.2179 5.90118C11.3759 6.02758 11.4707 6.05918 11.5023 6.05918L11.5813 6.09078ZM11.8815 5.17439V7.43377L10.8229 6.88077L10.4437 4.68459L11.8815 5.17439ZM12.4345 5.72738L13.0981 5.45879C13.0981 5.45879 13.0981 5.66418 12.7979 5.90118C12.6399 6.02758 12.5451 6.05918 12.5135 6.05918L12.4503 6.09078V5.72738H12.4345ZM13.1771 6.86497L13.5563 4.66879L12.1185 5.15859V7.41797L13.1771 6.86497ZM10.2383 12.7267C10.1435 12.7267 9.98549 12.7109 9.84329 12.6635C9.68529 12.6003 9.46409 12.3159 9.51149 12.0157C9.57469 11.9683 9.73269 11.8893 9.87489 11.8893C9.98549 11.8893 10.0645 11.9367 10.1119 12.0473C10.1593 12.1421 10.2383 12.2053 10.3015 12.2527C10.3015 12.3475 10.2857 12.4897 10.2699 12.6161C10.2699 12.6477 10.2541 12.6635 10.2541 12.6951C10.2541 12.6951 10.2383 12.7109 10.2383 12.7267ZM12.2607 12.2527L12.2291 12.2843L12.2133 12.3001L12.1817 12.3317L10.5227 12.3001C10.5227 12.4581 10.4911 12.6003 10.4753 12.7109C10.4753 12.7267 10.4595 12.7425 10.4595 12.7583L12.4345 13.1059C12.6399 12.9637 13.2087 12.5529 13.4299 12.3949C13.2719 12.1579 13.2561 11.8893 13.2877 11.6997C13.1771 11.6365 13.0981 11.5575 13.0349 11.4785C12.8137 11.7155 12.3871 12.1105 12.2607 12.2527ZM12.1817 10.0249C12.5135 9.99335 12.8769 9.85115 13.2561 9.47195H15.7524C15.6418 9.75635 15.547 10.0723 15.547 10.3725V12.3633C15.1362 12.3001 15.073 11.8419 15.073 11.8261V11.7313H14.9782C14.7886 11.7155 14.678 11.6365 14.5674 11.5417C14.3621 11.3363 14.3621 11.0045 14.3621 11.0045C14.3621 11.0045 14.3621 11.0045 14.3621 11.0203C14.3305 11.0835 14.1725 11.3679 14.4094 11.6681C14.52 11.8103 14.678 11.9051 14.8834 11.9367C14.9308 12.1895 15.1204 12.5371 15.5628 12.5845V13.5641H14.3305C13.7617 13.2481 13.9987 12.6951 14.0145 12.6793L14.0619 12.5687L13.9513 12.5213C13.3351 12.3001 13.5089 11.6839 13.5089 11.6523L13.5405 11.5575L13.4615 11.5259C12.9559 11.2889 13.0191 10.6569 13.0349 10.6411C12.8769 10.7675 12.8295 11.0203 12.9243 11.2731C12.8769 11.3363 12.7979 11.4153 12.7189 11.4943L12.7031 11.5101C12.1817 11.3837 12.1659 10.8939 12.1659 10.8781V10.7991L12.1027 10.7675C11.8973 10.6885 11.7551 10.5779 11.6919 10.4199C11.6129 10.2461 11.6445 10.0723 11.6603 9.99335C11.7235 10.0091 11.7867 10.0091 11.8341 10.0249C11.8973 10.0249 11.9605 10.0407 12.0079 10.0407C12.0711 10.0407 12.1185 10.0407 12.1817 10.0249ZM9.95389 10.3883L9.92229 11.6523L10.0645 11.6681L10.4121 10.4515L10.2383 10.0723L9.95389 10.3883ZM10.6491 15.0019C10.6491 15.0493 10.6807 15.0809 10.7123 15.0809C10.7597 15.0809 10.7913 15.0493 10.7913 15.0177C10.7913 14.9861 10.7597 14.9387 10.7281 14.9387C10.6807 14.9387 10.6491 14.9703 10.6491 15.0019ZM13.8881 16.2027C13.8723 16.2027 13.8565 16.2027 13.8565 16.2027C13.7775 16.2027 13.7617 16.2659 13.7617 16.2659C13.8091 16.3923 13.8249 16.4871 13.8249 16.5661C13.8407 16.6609 13.8407 16.7399 13.9039 16.8505C13.9671 16.9769 14.0777 17.0875 14.1567 17.1507C14.1725 17.1665 14.1883 17.1665 14.1883 17.1823C14.1883 17.1823 14.1725 17.2929 14.1567 17.3877L13.9987 18.1777C13.9039 18.1935 13.7933 18.1935 13.6985 18.2093L13.8565 17.4351C13.8723 17.3245 13.7459 17.2455 13.5721 17.1507C13.3825 17.0401 13.1455 16.9137 12.9875 16.6925C12.8453 16.8663 12.5609 16.9137 12.2765 16.9137C12.0237 16.9137 11.7709 16.8663 11.6129 16.8347C11.5813 16.8347 11.5339 16.8189 11.5023 16.8189C11.4075 16.8189 11.3285 16.8505 11.2811 16.9453L11.2337 17.0243L10.3963 16.8347L10.1909 17.1823C10.1593 17.2455 10.1593 17.2771 10.2067 17.3403L10.2699 17.4035C10.2383 17.5299 10.0645 17.7037 10.0645 17.7037L9.93809 17.5457C9.84329 17.4351 9.85909 17.2297 9.95389 17.0559L10.2857 16.5029L10.9967 16.5977L10.8861 16.3449C10.7439 16.1079 10.8229 15.8393 10.9019 15.6181C10.9335 15.5233 10.9493 15.4285 10.9651 15.3653C10.9493 15.4443 10.8861 15.4601 10.8071 15.4601C10.7755 15.4601 10.7281 15.4601 10.6965 15.4601C10.6649 15.4601 10.6333 15.4601 10.6017 15.4601C10.5859 15.4601 10.5701 15.4601 10.5543 15.4759L10.3647 15.5865L10.2067 15.4601C10.1909 15.4285 10.1751 15.3811 10.2225 15.3337L10.5701 14.9387L10.1593 14.4173L10.7439 14.7017L10.9177 14.4805C10.9651 14.5279 10.9493 14.6543 10.9493 14.6543C11.1231 14.6543 11.6445 14.9387 11.6603 15.5865C11.6603 15.6023 11.6603 15.6339 11.6603 15.6497C11.6603 15.6497 11.6603 15.6497 11.6761 15.6655C11.7077 15.7129 11.8183 15.8393 11.9289 15.8551L12.7347 15.9341C12.7663 15.9341 12.8137 15.9183 12.8769 15.9025C12.9717 15.8709 13.0823 15.8393 13.2245 15.8393C13.3509 15.8393 13.4773 15.8709 13.6353 15.9657C13.6353 15.9657 13.7143 15.9025 13.8249 15.9025C13.8407 15.9025 13.8407 15.9025 13.8565 15.9025C14.1567 15.9025 14.3147 16.1237 14.4726 16.3607C14.5042 16.4081 14.5358 16.4555 14.5674 16.4871C14.7096 16.6925 14.8992 16.9927 14.8992 16.9927C14.8202 17.0717 14.757 17.1191 14.6464 17.1191C14.6148 17.1191 14.5832 17.1191 14.5358 17.1033C14.3147 17.0559 14.2041 16.7873 14.1093 16.5503C14.0303 16.3923 13.9671 16.2343 13.8881 16.2027ZM9.57469 16.9295C9.57469 16.9295 9.85909 16.8189 9.87489 16.7399L9.84329 16.6451C9.81169 16.5819 9.82749 16.5187 9.87489 16.4871L10.1751 16.2817L10.6807 16.3765C10.6807 16.3765 10.5859 16.2659 10.6017 16.1079L10.1277 16.0131L9.68529 16.2817C9.49569 16.4239 9.47989 16.6609 9.54309 16.8031L9.57469 16.9295ZM13.4141 18.2251C13.3035 18.2251 13.2087 18.2251 13.1139 18.2251L13.3509 17.4983C13.3825 17.4351 13.3035 17.3561 13.2245 17.2613C13.1929 17.2297 13.1455 17.1823 13.1297 17.1507C13.2403 17.2297 13.5405 17.3877 13.6827 17.4509C13.6669 17.4667 13.4141 18.2251 13.4141 18.2251Z" fill="white"/>
<path id="Vector_3" fill-rule="evenodd" clip-rule="evenodd" d="M13.9828 13.5646H8.43709V10.3889C8.43709 10.0729 8.34229 9.77268 8.23169 9.48828H10.7439C10.9809 9.72528 11.2179 9.86748 11.4391 9.94648C11.4075 10.0571 11.3759 10.2941 11.4865 10.5311C11.5813 10.7207 11.7235 10.8629 11.9605 10.9577C11.9921 11.1947 12.1343 11.5423 12.5451 11.7003C12.3713 11.8741 12.1975 12.0479 12.1185 12.1111L10.4595 12.0795C10.4279 12.0637 10.3647 12.0163 10.3331 11.9531V11.9373C10.3331 11.9373 10.3331 11.9373 10.3331 11.9215L10.6017 11.9689H10.6175C10.6649 11.9689 10.7123 11.9373 10.7281 11.8741C10.7439 11.8109 10.6965 11.7635 10.6333 11.7477L10.2699 11.7161L10.6333 10.4521L10.2857 9.72528L9.73268 10.3099L9.70108 11.6213L9.32188 11.5581C9.25868 11.5423 9.21128 11.5897 9.19548 11.6529C9.17968 11.7161 9.22708 11.7635 9.29028 11.7793L9.44828 11.8109C9.38508 11.8425 9.35348 11.8741 9.35348 11.8741L9.32188 11.8899L9.30608 11.9215C9.21128 12.2849 9.41668 12.6483 9.63788 12.8063V12.8537C9.62208 12.9169 9.63788 12.9643 9.66948 13.0117C9.70108 13.0591 9.74848 13.0907 9.81168 13.0907C9.82748 13.0907 9.82748 13.0907 9.84328 13.0907C9.93808 13.0907 10.0171 13.0275 10.0487 12.9327C10.1277 12.9485 10.2067 12.9485 10.2541 12.9485H10.3015L12.4819 13.3276L12.5135 13.2961C12.6873 13.1697 13.3508 12.6957 13.5562 12.5377C13.6194 12.5851 13.6826 12.6325 13.7616 12.6799C13.7142 12.9169 13.6984 13.2802 13.9828 13.5646ZM8.43709 13.7858H15.5628V16.456C15.5628 17.3408 15.0414 17.957 14.2198 18.1624L14.362 17.4514V17.4356C14.362 17.3882 14.3778 17.3566 14.3778 17.3092C14.4094 17.325 14.4568 17.3408 14.5042 17.3408C14.5516 17.3566 14.599 17.3566 14.6464 17.3566C14.8518 17.3566 14.9782 17.246 15.0572 17.1512L15.1678 17.0248L15.0888 16.8984C15.0888 16.8826 14.8834 16.5824 14.7412 16.377C14.7096 16.3296 14.678 16.298 14.6622 16.2506C14.4884 15.9978 14.283 15.6976 13.8722 15.6976H13.8406C13.7774 15.6976 13.7142 15.7134 13.6668 15.7292C13.5404 15.666 13.3982 15.6344 13.256 15.6344C13.0823 15.6344 12.9401 15.6818 12.8453 15.7134C12.8295 15.7134 12.8295 15.7134 12.8137 15.7134C12.7979 15.7134 12.7821 15.7292 12.7663 15.7292L11.9763 15.6502C11.9605 15.6502 11.9289 15.6344 11.8973 15.587L12.0711 15.5238C12.0237 14.955 11.4865 14.6232 11.1863 14.4968C11.1705 14.4336 11.1389 14.3862 11.0915 14.3388L10.9177 14.1808L10.7439 14.3546L10.6649 14.4494L9.57468 14.007L10.2857 14.8918L10.0013 15.3184C9.89068 15.429 10.0171 15.5396 10.0171 15.5396L10.3015 15.745L10.6017 15.6344H10.6175C10.6175 15.6344 10.6175 15.6344 10.6333 15.6344C10.6175 15.666 10.6175 15.7292 10.6017 15.7924C10.6017 15.8398 10.5859 15.8872 10.5859 15.903L10.0645 15.8082L9.51148 16.1242C9.22708 16.3296 9.19548 16.6772 9.29028 16.9142L9.35348 17.0406L9.43248 17.2302L9.62208 17.1512C9.55888 17.3724 9.57468 17.5778 9.70108 17.72L9.81168 17.8622L9.96968 18.0518L10.1435 17.8622C10.1909 17.8148 10.3489 17.6252 10.4121 17.483L10.4437 17.3566L10.3647 17.2618L10.3489 17.246L10.4437 17.088L11.1231 17.246L11.2811 17.2776L11.3601 17.1512L11.4075 17.0722C11.4233 17.0564 11.4233 17.0564 11.4549 17.0564C11.4865 17.0564 11.5023 17.0564 11.5339 17.0722C11.7867 17.1196 12.0237 17.1512 12.2449 17.1512C12.4503 17.1512 12.5767 17.1512 12.7189 17.088C12.7189 17.088 13.0823 17.4988 13.098 17.5146L12.8769 18.2098L12.8611 18.2572C12.4345 18.2888 12.2291 18.3836 11.9763 18.6364C11.6129 18.273 11.3601 18.2414 10.3805 18.2414C9.21128 18.2414 8.42129 17.562 8.42129 16.4718V13.7858H8.43709Z" fill="#FFDD2D"/>
<path id="Vector_4" fill-rule="evenodd" clip-rule="evenodd" d="M10.4754 2.6309L10.2858 2.6151L10.112 2.5835C10.191 2.7731 10.2542 2.9469 10.3016 3.0891C10.7756 2.8205 11.3918 2.6783 12.008 2.6783C12.64 2.6783 13.2404 2.8205 13.7144 3.0891C13.7618 2.9469 13.825 2.7731 13.904 2.5835L13.7302 2.5993L13.5406 2.6151L13.4616 2.4413L13.2246 1.93571L12.798 2.1569L12.6242 2.2359L12.482 2.1095L12.008 1.65131L11.534 2.1095L11.3918 2.2359L11.218 2.1569L10.7756 1.93571L10.5386 2.4413L10.4754 2.6309ZM13.8724 3.51569C13.509 3.21549 12.8296 2.9469 12.008 2.9469C11.1706 2.9469 10.507 3.21549 10.1436 3.51569C10.1436 3.51569 10.033 2.8521 9.6538 2.2833L10.3332 2.3623L10.6808 1.61971L11.3602 1.96731L12.008 1.30371L12.6716 1.95151L13.351 1.60391L13.6986 2.3465L14.378 2.2675C13.983 2.8521 13.8724 3.51569 13.8724 3.51569ZM10.7282 14.939C10.6808 14.939 10.6492 14.9706 10.6492 15.0022C10.6492 15.0496 10.6808 15.0812 10.7124 15.0812C10.7598 15.0812 10.7914 15.0496 10.7914 15.018C10.7914 14.9706 10.7598 14.939 10.7282 14.939ZM14.0146 20.5322L13.6828 19.6474C14.062 19.5368 14.7414 19.284 15.0258 19.1102L14.8204 19.758L15.4998 19.9792C15.1206 20.1688 14.615 20.3584 14.0146 20.5322ZM12.008 21.3221C11.218 21.3221 10.3332 21.1483 10.0646 21.0535L10.4596 19.9792C10.7914 20.074 11.4866 20.1846 11.9764 20.1688H12.008C12.5136 20.1688 13.193 20.074 13.5406 19.9792L13.9356 21.0535C13.6828 21.1483 12.7822 21.3221 12.008 21.3221ZM8.48461 19.9634L9.16401 19.7422L8.95861 19.0944C9.25881 19.2682 9.9224 19.521 10.3016 19.6316L9.9698 20.5163C9.38521 20.3584 8.87961 20.1688 8.48461 19.9634ZM15.5472 19.7738L15.1364 19.6158L15.247 19.1892L15.3734 18.731C15.3734 18.731 14.6466 19.126 13.6196 19.4104C13.3352 19.4894 13.114 19.5368 13.114 19.5368V19.8528C13.114 19.8528 12.561 19.9476 12.008 19.9476H11.9922C11.4392 19.9476 10.8862 19.8528 10.8862 19.8528V19.5368C10.8862 19.5368 10.665 19.5052 10.3806 19.4104C9.35361 19.1102 8.62681 18.731 8.62681 18.731L8.75321 19.1892L8.86381 19.6158L8.45301 19.7738L7.99482 19.9476C8.04222 19.9792 8.08962 19.995 8.15282 20.0266C8.65841 20.2636 9.30621 20.5795 9.9066 20.7533L9.7486 21.1799C9.7486 21.1799 10.586 21.5591 11.9922 21.5591C13.3984 21.5591 14.2358 21.1799 14.2358 21.1799L14.0778 20.7533C14.6782 20.5954 15.3418 20.2636 15.8474 20.0266C15.8948 20.0108 15.9422 19.9792 15.9896 19.9634L15.5472 19.7738ZM22.5781 13.991C22.5781 13.991 22.2937 14.4966 21.6143 14.4966H21.5985C20.7927 14.4966 20.4767 14.0068 20.4767 14.0068C20.4767 14.0068 20.5241 14.6388 20.2397 15.492C19.8921 16.519 20.2397 17.2616 20.2397 17.2616C20.2397 17.2616 20.0501 17.309 19.8447 17.309C19.7657 17.309 19.6709 17.2932 19.5919 17.2774C18.9283 17.1194 18.7545 16.519 18.7545 16.519C18.7545 16.519 18.8177 18.573 16.4161 18.573H16.4003C16.4003 18.573 16.6057 18.2886 16.6689 17.467C16.7795 15.9502 17.8223 15.7448 17.8223 15.7448C17.8223 15.7448 17.2693 15.6816 17.0323 15.4604C16.6531 15.1286 16.6847 14.7336 16.6847 14.7336C17.5221 14.7178 18.0751 14.4334 18.5017 13.9594C18.9599 13.438 19.0389 12.8692 19.0389 12.8692C19.0389 12.8692 18.5807 13.28 17.7117 13.28C17.6327 13.28 17.5537 13.28 17.4747 13.2642C17.0639 13.2326 16.7795 12.964 16.7795 12.964C17.6959 12.3794 18.3279 11.3682 17.7591 9.83564C17.3009 8.60325 16.2107 7.68686 15.1048 7.00746C14.7414 6.78626 14.536 6.53347 14.536 6.31227C14.536 5.99627 14.8046 5.86987 15.089 5.74347C15.2628 5.66447 15.4524 5.56968 15.563 5.44328C15.9106 5.04828 15.6894 4.40049 15.3892 4.00549C15.3892 4.00549 15.484 3.98969 15.6578 3.98969C15.9738 3.98969 16.5267 4.06869 16.9691 4.52688C17.5695 5.14308 17.3167 5.80667 17.3167 5.80667L17.4747 5.83827C17.5695 5.85407 17.6643 5.86987 17.7433 5.86987H17.7591C17.7749 5.86987 17.7749 5.86987 17.7907 5.86987C17.8065 5.86987 17.8065 5.86987 17.8223 5.86987C18.6913 5.86987 19.0863 4.96928 19.0863 4.96928C19.0863 4.96928 20.0185 6.10687 18.6439 6.99166C18.4069 7.14966 18.3121 7.29186 18.3279 7.43406L18.3437 7.52886L18.4385 7.54466C19.3865 7.79746 19.8763 8.42945 20.4609 9.15625C20.4767 9.18785 20.5083 9.21944 20.5241 9.23524C21.4563 10.4044 22.7519 10.436 22.9257 10.436H22.9415C22.9415 10.436 22.6413 11.3682 21.7565 11.3682C21.7407 11.3682 21.7249 11.3682 21.7091 11.3682C21.2983 11.3524 21.0929 11.1944 21.0929 11.1944C21.0929 11.1944 20.9823 13.3274 22.5781 13.991ZM21.7881 11.6526C22.8625 11.6526 23.2259 10.5624 23.2417 10.515L23.3681 10.1358L22.9573 10.1516C22.8151 10.1516 21.6301 10.12 20.7769 9.04565L20.6979 8.95085C20.1449 8.25565 19.6235 7.59206 18.6913 7.29186C18.7229 7.26026 18.7545 7.24446 18.8177 7.19706C19.3075 6.86526 19.6077 6.47027 19.6709 6.01207C19.7815 5.31688 19.3391 4.77968 19.3075 4.74808L19.0073 4.38469L18.8177 4.82708C18.8019 4.85868 18.4859 5.55388 17.8223 5.55388H17.7749C17.7591 5.55388 17.7591 5.55388 17.7433 5.55388C17.7117 5.55388 17.6801 5.55388 17.6485 5.55388C17.6643 5.23788 17.6169 4.74808 17.1745 4.30569C16.6373 3.75269 15.9896 3.67369 15.6578 3.67369C15.4998 3.67369 15.3892 3.68949 15.3576 3.68949C15.3576 3.68949 15.3576 3.68949 15.3418 3.68949L14.8836 3.78429L15.168 4.14769C15.3892 4.43208 15.5946 4.95348 15.3576 5.22208C15.2786 5.30108 15.1364 5.36428 15.01 5.44328L14.9784 5.45908C14.6782 5.60127 14.2516 5.79087 14.2516 6.29647C14.2516 6.61247 14.5044 6.96006 14.9626 7.24446C16.3055 8.08185 17.1429 8.96665 17.4905 9.93044C18.0435 11.4156 17.3167 12.2688 16.6215 12.727L16.3055 12.9324L16.5741 13.1852C16.6057 13.2168 16.9533 13.517 17.4431 13.5486C17.5379 13.5486 17.6327 13.5644 17.7117 13.5644C18.0277 13.5644 18.2963 13.517 18.5175 13.4538C18.4543 13.5644 18.3753 13.675 18.2805 13.7698C17.8855 14.228 17.3799 14.4492 16.6689 14.4492H16.4003L16.3845 14.7178C16.3845 14.7652 16.3687 15.255 16.8269 15.6816C16.8901 15.7448 16.9849 15.7922 17.0797 15.8396C16.7637 16.124 16.4477 16.6138 16.3845 17.4512C16.3371 18.1622 16.1634 18.415 16.1634 18.415L15.879 18.8574H16.4003C17.2693 18.8574 17.9329 18.6204 18.4069 18.1464C18.6755 17.862 18.8335 17.546 18.9283 17.2616C19.0863 17.388 19.2759 17.4986 19.5287 17.5618C19.6235 17.5776 19.7341 17.5934 19.8447 17.5934C20.0817 17.5934 20.2871 17.546 20.3187 17.5302L20.6505 17.4354L20.5083 17.1194C20.4925 17.072 20.2239 16.4558 20.5241 15.571C20.6505 15.1918 20.7137 14.8442 20.7453 14.5756C20.9507 14.6862 21.2351 14.781 21.6143 14.781C22.4359 14.781 22.7993 14.1806 22.8309 14.1332L22.9889 13.8488L22.6887 13.7224C21.6933 13.3116 21.4721 12.2056 21.4247 11.621C21.5195 11.6368 21.6143 11.6526 21.7249 11.6526H21.7881ZM21.2351 7.27606C21.0139 7.05486 20.7769 6.97586 20.5715 6.97586C20.2555 6.97586 20.0185 7.13386 20.0185 7.13386C20.4767 7.37086 20.7295 7.68686 20.9507 7.95546C21.1403 8.17665 21.2983 8.38205 21.5037 8.44525C21.5827 8.47685 21.6617 8.49265 21.7565 8.49265C22.1041 8.49265 22.4517 8.27145 22.5623 8.00286C22.5781 8.01866 21.9303 7.97126 21.2351 7.27606ZM20.7453 8.14505C20.5399 7.89226 20.3029 7.60786 19.9079 7.38666L19.4971 7.16546L19.8763 6.89686C19.9237 6.86526 20.2081 6.69147 20.5873 6.69147C20.9033 6.69147 21.2035 6.81786 21.4563 7.07066C22.0567 7.67106 22.5939 7.73426 22.6097 7.73426L23.0205 7.76586L22.8467 8.14505C22.6729 8.52425 22.2305 8.79285 21.7723 8.79285C21.6617 8.79285 21.5511 8.77705 21.4405 8.74545C21.1403 8.63485 20.9507 8.39785 20.7453 8.14505ZM20.0817 11.1944C19.8447 9.26684 18.4227 7.86066 16.8427 7.00746C16.7005 6.92846 16.5583 6.86526 16.4319 6.80206C16.9059 6.88106 17.6801 6.88106 18.2805 6.37547C18.2805 6.37547 17.3641 7.03906 15.484 6.43867C15.642 6.53347 15.8316 6.64407 16.037 6.77046C16.5741 7.07066 17.2693 7.46566 17.9171 8.01865C20.2239 10.0252 18.5649 12.0002 18.5649 12.0002C19.3865 11.147 19.4181 10.2148 19.1811 9.47224C19.6235 10.199 19.8921 11.068 19.8447 12.1424C19.7815 13.6908 18.9283 15.0338 18.0277 16.1082C17.6011 16.6296 17.5063 17.2774 17.5063 17.2774C17.5063 17.2774 17.6801 16.7086 18.1857 16.124C19.1495 15.0022 19.9711 13.833 20.0817 12.1582C20.1765 12.4584 20.5873 13.3116 21.2351 13.6276C21.2667 13.596 20.4609 13.1062 20.0817 11.1944ZM5.22984 16.5032C5.22984 16.5032 5.16664 18.5572 7.56822 18.5572H7.58402C7.58402 18.5572 7.37862 18.2728 7.31542 17.4512C7.20482 15.9186 6.16203 15.7132 6.16203 15.7132C6.16203 15.7132 6.71503 15.65 6.95203 15.4288C7.33122 15.097 7.29962 14.702 7.29962 14.702C6.46223 14.6862 5.90924 14.4018 5.48264 13.9278C5.02444 13.4064 4.96124 12.8376 4.96124 12.8376C4.96124 12.8376 5.41944 13.2484 6.28843 13.2484C6.36743 13.2484 6.44643 13.2484 6.54123 13.2326C6.95203 13.201 7.23642 12.9324 7.23642 12.9324C6.32003 12.3478 5.68804 11.3366 6.24103 9.80404C6.69923 8.57165 7.78942 7.65526 8.89541 6.97586C9.25881 6.75467 9.46421 6.50187 9.46421 6.28067C9.46421 5.96467 9.19561 5.83827 8.91121 5.71187C8.73741 5.63287 8.54781 5.53808 8.43722 5.41168C8.08962 5.01668 8.31082 4.36889 8.61101 3.97389C8.61101 3.97389 8.51621 3.95809 8.35822 3.95809C8.04222 3.95809 7.48922 4.03709 7.04683 4.49528C6.44643 5.11148 6.69923 5.77507 6.69923 5.77507L6.54123 5.80667C6.44643 5.82247 6.36743 5.82247 6.27263 5.83827H6.25683C6.24103 5.83827 6.24103 5.83827 6.22523 5.83827C6.20943 5.83827 6.20943 5.83827 6.19363 5.83827C5.32464 5.83827 4.92964 4.93768 4.92964 4.93768C4.92964 4.93768 4.01325 6.07527 5.37204 6.96006C5.60904 7.11806 5.70384 7.26026 5.68804 7.40246L5.67224 7.49726H5.53004C4.58205 7.75006 4.09225 8.38205 3.50766 9.10885C3.47606 9.14045 3.46026 9.17205 3.42866 9.20364C2.49646 10.3728 1.20088 10.4044 1.02708 10.4044C1.02708 10.4044 1.32727 11.3366 2.21207 11.3366C2.22787 11.3366 2.24367 11.3366 2.25947 11.3366C2.67026 11.3208 2.87566 11.1628 2.87566 11.1628C2.87566 11.1628 3.03366 13.2958 1.43787 13.9594C1.43787 13.9594 1.72227 14.465 2.40167 14.465C3.20746 14.465 3.52346 13.9752 3.52346 13.9752C3.52346 13.9752 3.47606 14.6072 3.76045 15.4604C4.10805 16.4874 3.76045 17.23 3.76045 17.23C3.76045 17.23 3.95005 17.2774 4.15545 17.2774C4.23445 17.2774 4.32925 17.2616 4.40825 17.2458C5.07184 17.1194 5.22984 16.5032 5.22984 16.5032ZM7.82102 18.3834L8.12122 18.8258H7.59982C6.73083 18.8258 6.06723 18.5888 5.59324 18.1148C5.32464 17.8304 5.16664 17.5144 5.07184 17.23C4.91384 17.3564 4.72425 17.467 4.47145 17.5302C4.37665 17.546 4.26605 17.5618 4.15545 17.5618C3.91845 17.5618 3.69725 17.5144 3.68145 17.4986L3.34966 17.4038L3.49186 17.0878C3.50766 17.0404 3.77625 16.4242 3.47606 15.5394C3.34966 15.1444 3.28646 14.8126 3.25486 14.544C3.04946 14.6546 2.76506 14.7494 2.40167 14.7494C1.58007 14.7494 1.20088 14.1332 1.18508 14.1016L1.02708 13.8172L1.32727 13.6908C2.32267 13.28 2.54386 12.174 2.59126 11.5894C2.49646 11.6052 2.40167 11.621 2.29107 11.621H2.24367C1.16928 11.621 0.805879 10.5308 0.790079 10.4834L0.63208 10.12L1.04288 10.1358C1.18508 10.1358 2.38587 10.1042 3.22326 9.02985L3.30226 8.93505C3.85525 8.23985 4.37665 7.57626 5.30884 7.27606C5.27724 7.24446 5.24564 7.22866 5.18244 7.18126C4.69265 6.84946 4.39245 6.45447 4.32925 5.99627C4.21865 5.31688 4.64525 4.77968 4.67685 4.73228L4.97704 4.36889L5.16664 4.81128C5.18244 4.84288 5.49844 5.53808 6.16203 5.53808H6.20943C6.22523 5.53808 6.22523 5.53808 6.24103 5.53808C6.27263 5.53808 6.30423 5.53808 6.33583 5.53808C6.32003 5.22208 6.36743 4.74808 6.80983 4.28989C7.34702 3.73689 7.99482 3.65789 8.32662 3.65789C8.48461 3.65789 8.59521 3.67369 8.62681 3.67369C8.62681 3.67369 8.62681 3.67369 8.64261 3.67369L9.10081 3.76849L8.81641 4.13189C8.59521 4.41628 8.38981 4.93768 8.62681 5.20628C8.69001 5.28528 8.83221 5.34848 8.97441 5.42748L9.00601 5.44328C9.30621 5.58548 9.7328 5.77507 9.7328 6.28067C9.7328 6.59667 9.48001 6.94426 9.03761 7.22866C7.69462 8.06605 6.85723 8.95085 6.50963 9.91464C5.95664 11.3998 6.68343 12.253 7.37862 12.7112L7.69462 12.9166L7.42602 13.1536C7.39442 13.1852 7.04683 13.4854 6.55703 13.517C6.46223 13.517 6.36743 13.5328 6.28843 13.5328C5.97244 13.5328 5.70384 13.4854 5.48264 13.4222C5.54584 13.5328 5.62484 13.6434 5.71964 13.7382C6.11463 14.1964 6.62023 14.4176 7.33122 14.4176H7.59982L7.61562 14.6862C7.61562 14.7336 7.63142 15.2234 7.17323 15.65C7.09423 15.7132 7.01523 15.7606 6.92043 15.808C7.23642 16.0924 7.55242 16.5822 7.61562 17.4196C7.66302 18.099 7.80522 18.3676 7.82102 18.3834ZM2.76506 7.27606C2.98626 7.05486 3.22326 6.97586 3.42866 6.97586C3.74465 6.97586 3.98165 7.13386 3.98165 7.13386C3.52346 7.37086 3.27066 7.68686 3.04946 7.95546C2.85986 8.17665 2.70186 8.38205 2.48066 8.44525C2.40167 8.47685 2.32267 8.49265 2.24367 8.49265C1.89607 8.49265 1.54847 8.27145 1.43787 8.00286C1.42207 8.01866 2.06987 7.97126 2.76506 7.27606ZM2.22787 8.79285C2.33847 8.79285 2.44907 8.77705 2.55966 8.74545C2.85986 8.65065 3.04946 8.41365 3.25486 8.16085V8.14505C3.46026 7.89226 3.69725 7.60786 4.09225 7.40246L4.50305 7.18126L4.12385 6.91266C4.07645 6.88106 3.79205 6.70727 3.41286 6.70727C3.09686 6.70727 2.79666 6.83366 2.54386 7.08646C1.94347 7.68686 1.40627 7.75006 1.39047 7.75006L0.979677 7.78166L1.15348 8.16085C1.32727 8.50845 1.78547 8.79285 2.22787 8.79285ZM4.78745 9.44064C4.34505 10.1674 4.07645 11.0364 4.12385 12.1108C4.18705 13.6592 5.04024 15.0022 5.94084 16.0766C6.36743 16.598 6.47803 17.2458 6.47803 17.2458C6.47803 17.2458 6.30423 16.677 5.79864 16.0924C4.83485 14.9706 4.01325 13.8014 3.90265 12.1266C3.80785 12.4268 3.39706 13.28 2.74926 13.596C2.74926 13.596 3.57086 13.1062 3.93425 11.1944V11.2102C4.15545 9.25104 5.57744 7.86066 7.15743 6.99166C7.28382 6.92846 7.41022 6.86526 7.52082 6.80206L7.56822 6.78627C7.09423 6.86526 6.32003 6.86526 5.71964 6.35967C5.71964 6.35967 6.63603 7.02326 8.50041 6.42287C8.34242 6.51767 8.15282 6.62827 7.94742 6.75467C7.41022 7.05486 6.71503 7.44986 6.06723 8.00286C3.76045 10.0094 5.41944 11.9844 5.41944 11.9844C4.58205 11.1154 4.53465 10.1832 4.78745 9.44064ZM11.455 8.17665V8.55585C11.5814 8.39785 11.85 8.42945 11.85 8.42945V8.98245C11.85 8.98245 11.8342 9.25104 11.7394 9.37744H12.0238H12.3082C12.2134 9.26684 12.1976 8.98245 12.1976 8.98245V8.42945C12.1976 8.42945 12.4504 8.39785 12.5926 8.55585V8.17665H12.0238H11.455ZM11.5024 6.05947C11.4866 6.05947 11.376 6.02787 11.218 5.90147C10.9178 5.68027 10.9178 5.45908 10.9178 5.45908L11.5814 5.72767V6.09107L11.5024 6.05947ZM12.7822 5.88567C13.0824 5.66447 13.0824 5.44328 13.0824 5.44328L12.4346 5.72767V6.09107L12.4978 6.05947C12.5294 6.04367 12.6242 6.01207 12.7822 5.88567ZM10.4122 4.28989L11.9922 4.90608L13.5722 4.28989C13.4458 3.97389 12.8138 3.70529 11.9922 3.70529C11.1706 3.70529 10.5544 3.97389 10.4122 4.28989ZM12.1186 7.43406L13.1772 6.88106L13.5564 4.68488L12.1186 5.17468V7.43406ZM14.3306 7.75006L13.8408 7.46566L13.3352 7.18126L12.008 7.90806L10.665 7.18126L10.1594 7.46566L9.6696 7.75006L9.54321 7.82906C9.8118 7.90806 10.033 8.03445 10.2068 8.22405C10.2068 8.22405 10.2068 8.22405 10.2226 8.23985L10.2384 8.25565C10.27 8.30305 10.3174 8.35045 10.349 8.38205C10.349 8.39785 10.3648 8.39785 10.3648 8.41365C10.3964 8.46105 10.428 8.50845 10.4596 8.55585L10.4754 8.57165C10.4754 8.57165 10.4754 8.58745 10.4912 8.58745C10.5386 8.65065 10.5702 8.71385 10.6018 8.77705C10.9494 9.37744 11.5024 9.72504 11.9922 9.72504C12.482 9.72504 13.035 9.36164 13.3826 8.77705C13.4142 8.71385 13.4616 8.65065 13.4932 8.58745C13.4932 8.57165 13.509 8.57165 13.509 8.55585C13.5406 8.50845 13.5722 8.46105 13.6196 8.41365L13.6354 8.39785C13.6354 8.39785 13.6354 8.38205 13.6512 8.38205C13.6828 8.33465 13.7302 8.28725 13.7776 8.23985C13.7776 8.23985 13.7776 8.23985 13.7934 8.22405C13.7934 8.22405 13.7934 8.22405 13.8092 8.20825C13.983 8.03445 14.1884 7.89226 14.4728 7.81326L14.3306 7.75006ZM15.563 10.3886C15.563 10.0726 15.6578 9.77244 15.7684 9.48804H13.2562C12.877 9.86724 12.5136 10.0094 12.1818 10.041C12.1186 10.041 12.0554 10.0568 12.008 10.0568C11.9448 10.0568 11.8816 10.0568 11.8342 10.041C11.771 10.041 11.7236 10.0252 11.6604 10.0094C11.6446 10.0884 11.613 10.278 11.692 10.436C11.7552 10.594 11.8974 10.7046 12.1028 10.7836L12.166 10.8152V10.8942C12.166 10.91 12.1818 11.3998 12.7032 11.5262C12.7822 11.4472 12.8612 11.3682 12.9244 11.2892C12.8138 11.0364 12.877 10.7836 13.035 10.6572C13.035 10.6888 12.956 11.3208 13.4616 11.542L13.5406 11.5894L13.509 11.6842C13.4932 11.7158 13.3352 12.3162 13.9514 12.5532L14.062 12.6006L14.0146 12.6796C13.9988 12.7112 13.7618 13.2642 14.3306 13.5644H15.563V12.5848C15.1206 12.5374 14.9468 12.174 14.8836 11.937C14.6782 11.9054 14.5202 11.8106 14.4096 11.6684C14.1726 11.3682 14.3306 11.0838 14.3622 11.0206C14.3622 11.0048 14.3622 11.0048 14.3622 11.0048C14.3622 11.0048 14.3622 11.3366 14.5676 11.542C14.6624 11.6368 14.7888 11.7158 14.9784 11.7316L15.0732 11.7474L15.089 11.8422C15.089 11.858 15.1364 12.3162 15.563 12.3794V10.3886ZM14.3622 17.4354L14.22 18.1464C15.0416 17.941 15.563 17.3248 15.563 16.44V13.7698H8.43722V16.44C8.43722 17.5302 9.22721 18.2096 10.3964 18.2096C11.376 18.2096 11.6288 18.2412 11.9922 18.6046C12.245 18.3518 12.4504 18.257 12.877 18.2254L12.8928 18.178L13.114 17.4828C13.0982 17.467 12.7348 17.0562 12.7348 17.0562C12.5926 17.1036 12.4662 17.1194 12.2608 17.1194C12.0554 17.1194 11.8184 17.0878 11.5498 17.0404C11.5182 17.0404 11.5024 17.0246 11.4708 17.0246C11.4392 17.0246 11.4392 17.0246 11.4234 17.0404L11.376 17.1194L11.297 17.2616L11.139 17.23L10.4596 17.072L10.3648 17.23L10.3806 17.2458L10.4596 17.3406L10.428 17.467C10.3806 17.625 10.2226 17.7988 10.1594 17.8462L9.9856 18.0358L9.8276 17.8462L9.717 17.704C9.59061 17.5618 9.55901 17.3564 9.63801 17.1352L9.44841 17.2142L9.36941 17.0246L9.30621 16.8982C9.19561 16.6612 9.24301 16.3294 9.52741 16.1082L10.0804 15.7922L10.6018 15.887C10.6018 15.8712 10.6176 15.8238 10.6176 15.7606C10.6334 15.6974 10.6334 15.6342 10.6492 15.6026C10.6492 15.6026 10.6492 15.6026 10.6334 15.6026H10.6176L10.3174 15.7132L10.0172 15.5236C10.0172 15.5236 9.9066 15.413 10.0014 15.3024L10.2858 14.8758L9.57481 13.991L10.665 14.4334L10.744 14.3386L10.8862 14.1648L11.06 14.3228C11.1074 14.3702 11.139 14.4176 11.1548 14.4808C11.455 14.5914 11.9922 14.939 12.0396 15.5078L11.8658 15.571C11.8974 15.6184 11.929 15.6342 11.9448 15.6342L12.7348 15.7132C12.7506 15.7132 12.7664 15.7132 12.7822 15.6974C12.798 15.6974 12.798 15.6974 12.8138 15.6816C12.9086 15.65 13.0508 15.6026 13.2246 15.6026C13.3668 15.6026 13.509 15.6342 13.6354 15.6974C13.6828 15.6816 13.746 15.6658 13.8092 15.6658H13.8408C14.2674 15.6658 14.4728 15.9818 14.6308 16.2188C14.6624 16.2662 14.6782 16.2978 14.7098 16.3452C14.852 16.5506 15.0416 16.8508 15.0574 16.8666L15.1364 16.993L15.0258 17.1194C14.9468 17.2142 14.8204 17.3248 14.615 17.3248C14.5676 17.3248 14.5202 17.3248 14.4728 17.309C14.4254 17.2932 14.3938 17.2932 14.3464 17.2774C14.378 17.3406 14.3622 17.388 14.3622 17.4354ZM9.875 16.7244L9.8434 16.6296C9.8118 16.5664 9.8276 16.5032 9.875 16.4716L10.1752 16.2662L10.6808 16.361C10.6808 16.361 10.586 16.2504 10.6018 16.0924L10.1278 15.9976L9.6696 16.2662C9.48001 16.4084 9.46421 16.6454 9.52741 16.7876L9.59061 16.914C9.57481 16.9298 9.8434 16.8192 9.875 16.7244ZM13.9988 18.1938L14.1568 17.4038C14.1726 17.309 14.1884 17.1984 14.1884 17.1984C14.1726 17.1826 14.1726 17.1826 14.1568 17.1668C14.0936 17.1036 13.9672 16.993 13.904 16.8508C13.8408 16.7402 13.8408 16.6612 13.825 16.5664C13.8092 16.4874 13.8092 16.3926 13.7618 16.2662C13.7618 16.2662 13.7934 16.203 13.8566 16.203C13.8724 16.203 13.8724 16.203 13.8882 16.203C13.983 16.2346 14.0462 16.3926 14.1252 16.5664C14.22 16.8034 14.3306 17.0878 14.5518 17.1194C14.5834 17.1194 14.6308 17.1352 14.6624 17.1352C14.773 17.1352 14.8362 17.0878 14.9152 17.0088C14.9152 17.0088 14.7256 16.7086 14.5834 16.5032C14.5518 16.4558 14.5202 16.4242 14.4886 16.3768C14.3306 16.1398 14.1726 15.9186 13.8724 15.9186C13.8566 15.9186 13.8566 15.9186 13.8408 15.9186C13.7144 15.9186 13.6512 15.9818 13.6512 15.9818C13.509 15.887 13.3668 15.8554 13.2404 15.8554C13.0982 15.8554 12.9876 15.887 12.8928 15.9186C12.8296 15.9344 12.7822 15.9502 12.7506 15.9502L11.9448 15.8712C11.8184 15.8554 11.7236 15.729 11.6762 15.6816C11.6604 15.6658 11.6604 15.6658 11.6604 15.6658C11.6604 15.65 11.6604 15.6184 11.6604 15.6026C11.6288 14.9548 11.1232 14.6704 10.9494 14.6704C10.9494 14.6704 10.9652 14.544 10.9178 14.4966L10.744 14.702L10.1594 14.4176L10.5702 14.8916L10.2226 15.2866C10.1752 15.334 10.191 15.3972 10.2068 15.413L10.3648 15.5394L10.5544 15.4288C10.5702 15.4288 10.586 15.413 10.6018 15.413C10.6334 15.413 10.6492 15.413 10.6966 15.413C10.7282 15.413 10.7756 15.413 10.8072 15.413C10.8862 15.413 10.9494 15.3972 10.9652 15.3182C10.9652 15.3972 10.9336 15.4762 10.902 15.5868C10.8388 15.808 10.7598 16.0924 10.8546 16.3136L10.9652 16.5664L10.2542 16.4716L9.9224 17.0246C9.8276 17.2142 9.796 17.4038 9.9066 17.5144L10.033 17.6724C10.033 17.6724 10.2068 17.4828 10.2384 17.3722L10.1752 17.309C10.1278 17.2616 10.1278 17.2142 10.1594 17.151L10.3648 16.8034L11.2022 16.993L11.2496 16.914C11.3128 16.8192 11.3918 16.7876 11.4708 16.7876C11.5024 16.7876 11.5498 16.7876 11.5814 16.8034C11.7394 16.835 11.9922 16.8824 12.245 16.8824C12.5294 16.8824 12.798 16.835 12.956 16.6612C13.114 16.8824 13.351 17.0246 13.5406 17.1194C13.7144 17.2142 13.8566 17.2932 13.825 17.4038L13.667 18.1622C13.7934 18.2096 13.8882 18.2096 13.9988 18.1938ZM13.114 18.2254C13.2088 18.2254 13.3036 18.2254 13.4142 18.2254C13.4142 18.2254 13.667 17.4828 13.6828 17.4512C13.5406 17.388 13.2404 17.23 13.1298 17.151C13.1614 17.1826 13.193 17.23 13.2246 17.2616C13.3036 17.3406 13.3826 17.4196 13.351 17.4828L13.114 18.2254ZM9.9382 10.3886L9.9066 11.6526L10.0488 11.6684L10.3964 10.4518L10.2226 10.0726L9.9382 10.3886ZM10.3016 12.253C10.2542 12.2056 10.1594 12.1424 10.112 12.0476C10.0646 11.937 9.9856 11.8896 9.875 11.8896C9.7328 11.8896 9.57481 11.9844 9.51161 12.016C9.46421 12.332 9.6854 12.6164 9.8434 12.6638C9.9856 12.7112 10.1594 12.727 10.2384 12.727V12.7112C10.2384 12.6954 10.2384 12.6954 10.2542 12.6796C10.2542 12.648 10.27 12.6322 10.27 12.6006C10.3016 12.49 10.3016 12.3478 10.3016 12.253ZM12.4346 13.1062C12.64 12.964 13.2088 12.5532 13.43 12.3952C13.272 12.1582 13.2562 11.8896 13.2878 11.7C13.1772 11.6368 13.0982 11.5578 13.035 11.4788C12.798 11.7474 12.3398 12.174 12.2292 12.2846C12.2134 12.3004 12.2134 12.3004 12.2134 12.3004L12.1818 12.332L10.5228 12.3004C10.5228 12.4584 10.4912 12.6006 10.4754 12.7112C10.4754 12.727 10.4754 12.727 10.4596 12.7428V12.7586L12.4346 13.1062ZM11.4234 9.94624C11.2022 9.86724 10.9652 9.72504 10.7282 9.48804H8.24762C8.35822 9.77244 8.45301 10.0884 8.45301 10.3886V13.5644H13.9988C13.7144 13.28 13.7302 12.9166 13.7934 12.6796C13.7144 12.648 13.6512 12.6006 13.588 12.5374C13.3668 12.6954 12.719 13.1694 12.5452 13.2958L12.482 13.3274L10.3016 12.9324H10.27C10.2226 12.9324 10.1436 12.9324 10.0646 12.9166C10.0488 13.0114 9.954 13.0746 9.8592 13.0746C9.8434 13.0746 9.8434 13.0746 9.8276 13.0746C9.7644 13.0588 9.717 13.043 9.6854 12.9956C9.6538 12.9482 9.638 12.9008 9.6538 12.8376V12.7902C9.43261 12.6322 9.22721 12.2846 9.32201 11.9054V11.8896L9.35361 11.8738C9.35361 11.8738 9.40101 11.8422 9.44841 11.8106L9.29041 11.779C9.22721 11.7632 9.19561 11.7158 9.19561 11.6526C9.21141 11.5894 9.25881 11.5578 9.32201 11.5578L9.7012 11.621L9.7328 10.3096L10.2858 9.72504L10.6334 10.4518L10.27 11.7158L10.6018 11.7632C10.665 11.779 10.6966 11.8264 10.6966 11.8896C10.6808 11.937 10.6492 11.9844 10.586 11.9844H10.5702L10.3016 11.937C10.3016 11.937 10.3016 11.937 10.3016 11.9528C10.3016 11.9528 10.3016 11.9528 10.3016 11.9686C10.3332 12.0318 10.3964 12.0634 10.428 12.095L12.087 12.1266C12.166 12.0476 12.324 11.8896 12.4978 11.7158C12.087 11.5578 11.9448 11.2102 11.9132 10.9732C11.692 10.8784 11.534 10.7362 11.4392 10.5466C11.3602 10.2938 11.4076 10.0568 11.4234 9.94624ZM11.8816 5.17468L10.4438 4.68488L10.823 6.88106L11.8816 7.43406V5.17468ZM12.008 3.35769C13.035 3.35769 13.9672 3.84749 13.9672 4.40049L13.9514 4.54268L13.5406 6.89686L13.9514 7.13386L15.0258 7.75006C15.0258 7.75006 15.2628 7.87646 15.3734 7.95546C15.7842 8.23985 15.8632 8.65065 15.6262 8.80865C15.563 8.47685 15.2944 8.12925 14.8046 8.12925C14.4412 8.12925 14.1726 8.31885 13.9514 8.58745C13.904 8.65065 13.8408 8.72965 13.7934 8.80865C13.7302 8.90345 13.667 8.99825 13.6038 9.07725H16.3529C16.1476 9.48804 15.958 9.91464 15.958 10.3728V16.44C15.958 17.9094 14.8204 18.6046 13.6038 18.6046C13.5248 18.6046 13.4616 18.6046 13.3984 18.6046C12.6242 18.6046 12.482 18.6046 12.008 19.0786C11.5182 18.6046 11.376 18.6046 10.6176 18.6046C10.5544 18.6046 10.4912 18.6046 10.4122 18.6046C9.17981 18.6046 8.05802 17.9094 8.05802 16.44V10.3886C8.05802 9.93044 7.86842 9.48804 7.66302 9.09305H10.4122C10.349 9.01405 10.2858 8.91925 10.2226 8.82445C10.1752 8.74545 10.112 8.66645 10.0646 8.60325C9.8434 8.33465 9.57481 8.14505 9.21141 8.14505C8.70581 8.14505 8.45301 8.49265 8.38981 8.82445C8.15282 8.65065 8.24762 8.23985 8.64261 7.97126C8.75321 7.89226 8.99021 7.76586 8.99021 7.76586L10.0646 7.14966L10.4754 6.91266L10.0646 4.55848L10.0488 4.41629C10.033 3.86329 10.9652 3.35769 12.008 3.35769Z" fill="#231F20"/>
</g>
<defs>
<clipPath id="clip0_322_1386">
<rect width="24" height="21.3298" fill="white" transform="translate(0 0.671875)"/>
</clipPath>
</defs>
</svg>
