<svg width="24" height="16" viewBox="0 0 24 16" fill="none" xmlns="http://www.w3.org/2000/svg">
<path id="Vector" d="M13.62 6.52755C14.0086 6.48396 14.3751 6.36772 14.7343 6.21515C15.5333 5.87369 16.2077 5.36513 16.8161 4.75487C17.945 3.61424 18.7367 2.28473 19.2059 0.759056C19.2132 0.737261 19.2205 0.715466 19.2279 0.69367C19.2279 0.686405 19.2352 0.686405 19.2352 0.67914C20.518 0.67914 21.8082 0.67914 23.113 0.67914C22.4239 3.89758 20.606 6.3096 17.8644 8.08955C17.879 8.09681 17.8937 8.11134 17.923 8.11861C19.2938 8.787 20.4667 9.70967 21.471 10.843C22.3067 11.7948 22.9811 12.8482 23.4722 14.0106C23.5748 14.2504 23.6701 14.4974 23.7581 14.7444C23.8387 14.9841 23.912 15.2384 23.9853 15.4782C23.9853 15.4854 23.9927 15.4927 24 15.5C24 15.5072 24 15.5145 24 15.5218C22.6072 15.5218 21.2144 15.5218 19.8216 15.5218C19.7923 15.5218 19.7703 15.5218 19.741 15.5145C19.2572 14.0469 18.4582 12.7755 17.256 11.7802C16.3836 11.0537 15.394 10.5669 14.2798 10.3345C14.0379 10.2836 13.7886 10.2618 13.5394 10.2255C13.5321 10.2546 13.5247 10.2909 13.5247 10.3199C13.5247 12.02 13.5247 13.72 13.5247 15.42C13.5247 15.4491 13.5247 15.4782 13.5321 15.5072C13.5321 15.5145 13.5321 15.5145 13.5247 15.5218C13.2389 15.5218 12.953 15.5218 12.6597 15.529C12.4325 15.5218 12.2053 15.5218 11.978 15.5072C11.7434 15.4927 11.5089 15.4636 11.2743 15.4418C11.025 15.4128 10.7758 15.391 10.5339 15.3547C10.204 15.2965 9.87416 15.2311 9.55162 15.1512C8.06353 14.8098 6.67807 14.214 5.43189 13.335C4.25901 12.4995 3.29872 11.4751 2.51436 10.2691C1.65669 8.92504 1.07025 7.47928 0.667074 5.94634C0.564447 5.55403 0.469151 5.16171 0.388516 4.76213C0.322541 4.4352 0.278558 4.09374 0.227245 3.75955C0.183262 3.46894 0.14661 3.17834 0.102627 2.88773C0.0879658 2.7497 0.0806353 2.60439 0.0659743 2.46636C0.0513134 2.26293 0.0293219 2.06678 0.014661 1.86335C0.00733048 1.77617 0 1.68172 0 1.58728C0 1.28214 0 0.977009 0 0.671875C1.34881 0.671875 2.70495 0.671875 4.07575 0.671875C4.08308 0.780852 4.09774 0.897093 4.09774 1.00607C4.10507 1.20223 4.10507 1.39112 4.11973 1.58728C4.13439 1.83429 4.16371 2.08131 4.18571 2.33558C4.20037 2.52448 4.21503 2.7061 4.24435 2.895C4.26634 3.07663 4.30299 3.26552 4.33231 3.44715C4.36897 3.65783 4.39829 3.87579 4.44227 4.08648C4.50825 4.37708 4.57422 4.66768 4.65486 4.95102C4.95541 6.06985 5.38057 7.13782 6.011 8.11861C6.59743 9.01948 7.31582 9.78958 8.23946 10.3563C8.66463 10.6178 9.12645 10.8212 9.61026 10.952C9.62492 10.952 9.63958 10.9593 9.66158 10.9593C9.66158 7.53013 9.66158 4.10827 9.66158 0.67914C9.68357 0.671875 9.69823 0.671875 9.72022 0.671875C10.9957 0.671875 12.2639 0.671875 13.5394 0.671875C13.5394 0.708201 13.5394 0.744526 13.5394 0.788117C13.5394 2.66978 13.5394 4.55144 13.5394 6.4331C13.5394 6.46943 13.5394 6.50576 13.5394 6.55661C13.5687 6.53482 13.598 6.52755 13.62 6.52755Z" fill="#0077FF"/>
</svg>
