<svg width="14" height="25" viewBox="0 0 14 25" fill="none" xmlns="http://www.w3.org/2000/svg">
<path id="Vector" d="M10.9145 13.7282H9.28822C6.7339 13.7282 4.25681 12.1922 4.25681 8.35202C4.25681 4.35139 6.57889 2.71972 8.93982 2.71972H10.9145L10.9145 13.7282ZM13.4689 0.671875H9.05595C4.72158 0.671875 1.04433 3.39189 1.04433 8.67208C1.04433 11.8401 2.82542 14.176 5.99822 15.328L0.0774397 24.1602C-0.115939 24.4484 0.0774396 24.6719 0.386161 24.6719H3.13411C3.36638 24.6719 3.52137 24.608 3.59862 24.4484L8.97842 15.7758H10.9145V24.4484C10.9145 24.5441 11.0306 24.6719 11.1843 24.6719H13.5849C13.8172 24.6719 13.8947 24.5759 13.8947 24.4166V0.992131C13.8947 0.767587 13.7397 0.671875 13.4689 0.671875Z" fill="#ED2024"/>
</svg>
